<?xml version="1.0" encoding="UTF-8"?>
<svg version="1.1" xmlns="http://www.w3.org/2000/svg" width="704" height="704">
<path d="M0 0 C5.48646791 5.48646791 2.39350342 30.24454758 2.55224609 37.98510742 C2.60434695 40.46802415 2.66136927 42.95079427 2.71875 45.43359375 C2.73911316 46.54788002 2.73911316 46.54788002 2.7598877 47.68467712 C2.87343096 52.51891835 3.33299705 57.20979818 4 62 C7.62595996 60.0434405 11.25063218 58.0845071 14.875 56.125 C15.96603027 55.53581787 17.05706055 54.94663574 18.18115234 54.33959961 C23.95550343 51.21482081 29.70412979 48.05385898 35.4140625 44.81298828 C46.58228843 38.49633046 57.80227181 33.53194527 70.0625 29.75 C70.85317871 29.5034668 71.64385742 29.25693359 72.45849609 29.00292969 C84.50543111 25.44276863 96.56087105 24.58777243 109.0625 24.625 C109.7854425 24.62587616 110.50838501 24.62675232 111.25323486 24.62765503 C146.99179103 24.77001813 179.86998136 38.81615361 205.375 63.875 C220.72551428 79.50035913 230.06599823 98.04570666 236 119 C236.51240234 120.76730469 236.51240234 120.76730469 237.03515625 122.5703125 C241.6875303 142.26175616 241.05240348 166.70508509 235 186 C234.78569336 186.69432129 234.57138672 187.38864258 234.35058594 188.10400391 C227.4730958 209.66248283 211.33203322 234.65629571 191 246 C188.43089527 245.77168385 187.32291221 245.33140432 185.51464844 243.47558594 C184.81903809 242.48993652 184.81903809 242.48993652 184.109375 241.484375 C183.30487915 240.36567017 183.30487915 240.36567017 182.48413086 239.22436523 C181.91186768 238.40782471 181.33960449 237.59128418 180.75 236.75 C179.49789329 235.00521761 178.24391697 233.26177571 176.98828125 231.51953125 C176.33553223 230.61025879 175.6827832 229.70098633 175.01025391 228.76416016 C171.73415902 224.25943022 168.33230512 219.85300302 164.9375 215.4375 C162.28595867 211.96265492 159.64185818 208.48221068 157 205 C156.34386719 204.13761719 155.68773437 203.27523437 155.01171875 202.38671875 C153.13933834 199.91397589 151.28577123 197.42829343 149.4375 194.9375 C148.87087646 194.19363037 148.30425293 193.44976074 147.72045898 192.68334961 C147.21329346 191.99249268 146.70612793 191.30163574 146.18359375 190.58984375 C145.73556396 189.99034912 145.28753418 189.39085449 144.82592773 188.77319336 C144 187 144 187 144.20654297 184.89404297 C145.48224507 181.84884391 147.91373296 180.86267788 150.6875 179.1875 C160.10667571 173.14269092 165.81350203 166.04884151 168.25 155 C170.3357866 142.61681647 168.14841509 130.4505701 161 120 C160.45730469 119.18917969 159.91460937 118.37835938 159.35546875 117.54296875 C149.46377146 103.9861373 134.28316717 96.79967499 118 94 C95.70613509 91.63755929 79.02284741 100.46446185 60 111 C59.06768555 111.51626953 58.13537109 112.03253906 57.17480469 112.56445312 C51.48883427 115.72843666 45.83264229 118.94278137 40.18652344 122.17724609 C37.28117881 123.8391602 34.37220899 125.49443703 31.46144104 127.14682007 C28.9106878 128.59505104 26.36115402 130.04541957 23.81185913 131.49621582 C22.57587554 132.19934134 21.3395747 132.90190951 20.10293579 133.60388184 C18.36815821 134.58919787 16.63522006 135.57775027 14.90234375 136.56640625 C13.90710693 137.13302979 12.91187012 137.69965332 11.88647461 138.28344727 C10.93393799 138.84990967 9.98140137 139.41637207 9 140 C7.96601574 140.54449114 6.93203148 141.08898228 5.86671436 141.64997315 C2.70114776 143.75512435 2.70114776 143.75512435 2.24839699 147.29885077 C2.21696095 148.6378592 2.21864298 149.97788626 2.24609566 151.31698227 C2.2331785 152.43063429 2.2331785 152.43063429 2.22000039 153.56678432 C2.19834349 156.0690003 2.21962447 158.56903138 2.24050903 161.07122803 C2.23376513 162.87722938 2.22438932 164.68322251 2.21259964 166.48919797 C2.1877857 171.46287558 2.20045539 176.43587005 2.21906328 181.409549 C2.23261076 186.76881497 2.21165668 192.12795674 2.19483948 197.48719788 C2.17043842 206.77603821 2.16801891 216.06467724 2.18042374 225.35353851 C2.19832748 238.78371779 2.18324402 252.21369961 2.16004442 265.64386335 C2.12330576 287.43202456 2.11333816 309.22011286 2.12011719 331.00830078 C2.12664622 352.17662028 2.12062233 373.34487465 2.09765625 394.51318359 C2.09554027 396.46958285 2.09554027 396.46958285 2.09338154 398.46550533 C2.08622724 405.00846217 2.07882551 411.55141871 2.07130075 418.09437513 C2.00917083 472.39625499 1.99045015 526.69808873 2 581 C-3.89324379 578.17142518 -7.81140026 573.43156473 -12 568.5 C-16.32900263 563.45447279 -21.1049984 558.84558515 -25.84570312 554.19140625 C-26.79799805 553.25167969 -26.79799805 553.25167969 -27.76953125 552.29296875 C-28.34292236 551.7311792 -28.91631348 551.16938965 -29.50708008 550.59057617 C-32.44545655 547.45999192 -33.25031704 545.46825964 -33.25891972 541.28516102 C-33.26576851 540.30933907 -33.2726173 539.33351713 -33.27967364 538.32812482 C-33.27705678 537.25295108 -33.27443993 536.17777734 -33.27174377 535.07002258 C-33.27683061 533.92898471 -33.28191745 532.78794683 -33.28715843 531.61233205 C-33.29931622 528.43690322 -33.30251397 525.26160783 -33.30201519 522.0861603 C-33.30365072 518.65911845 -33.31678016 515.2321188 -33.32855225 511.80509949 C-33.347474 505.84505181 -33.35915044 499.88502471 -33.36609077 493.92495155 C-33.37632611 485.21186083 -33.39845119 476.49883037 -33.42347669 467.78577103 C-33.46419318 453.5229651 -33.49656061 439.26015321 -33.52319336 424.99731445 C-33.58108621 394.02809083 -33.65441694 363.05890595 -33.73508514 332.08973364 C-33.74771017 327.23385642 -33.75993879 322.37797842 -33.77186624 317.52209944 C-33.89791618 266.34418533 -34.22618664 215.17285193 -35 164 C-38.63908221 166.00303927 -42.27587683 168.01015898 -45.91079712 170.02073669 C-47.14202014 170.70106308 -48.37381226 171.38036079 -49.60623169 172.05851746 C-59.99584743 177.77701576 -70.09337932 183.87964893 -80.02490234 190.36352539 C-82 191 -82 191 -84.50805664 190.32348633 C-86.9974326 189.00136356 -88.7545257 187.66997818 -90.78515625 185.7265625 C-91.47488525 185.07228271 -92.16461426 184.41800293 -92.87524414 183.74389648 C-93.59703857 183.04466064 -94.31883301 182.3454248 -95.0625 181.625 C-96.18869751 180.55004272 -96.18869751 180.55004272 -97.33764648 179.45336914 C-102.30820126 174.69078292 -107.19480181 169.84830204 -112.03125 164.94995117 C-115.19890172 161.75425254 -118.48382928 158.77920324 -121.91015625 155.8671875 C-126.4726012 151.79083482 -130.71084962 147.36011058 -135 143 C-131.69880063 139.48719972 -128.57257938 136.92639373 -124.37109375 134.57421875 C-123.26830078 133.95095703 -122.16550781 133.32769531 -121.02929688 132.68554688 C-119.83206788 132.01946541 -118.6348012 131.35345167 -117.4375 130.6875 C-116.1837543 129.98199072 -114.93050784 129.2755936 -113.67773438 128.56835938 C-111.07727481 127.10121448 -108.47471877 125.63789523 -105.87060547 124.17724609 C-99.89339962 120.82044072 -93.94840069 117.40751638 -88 114 C-85.68900332 112.67803156 -83.37786836 111.35631019 -81.06640625 110.03515625 C-80.49230011 109.70695892 -79.91819397 109.3787616 -79.32669067 109.0406189 C-75.65916213 106.94502519 -71.98820977 104.85554344 -68.31503296 102.76986694 C-65.79409349 101.3381503 -63.27432667 99.90437669 -60.75463867 98.47045898 C-59.00357217 97.47505896 -57.25084122 96.4825887 -55.49804688 95.49023438 C-53.34838315 94.26642225 -51.20775857 93.02656082 -49.07763672 91.76904297 C-47.02019523 90.58641398 -44.92008457 89.47521655 -42.78564453 88.43798828 C-39.73610558 86.83831871 -37.4647878 85.40403516 -35 83 C-34.21738117 80.32094243 -34.21738117 80.32094243 -34.22265625 77.29589844 C-34.14985191 75.55814903 -34.14985191 75.55814903 -34.07557678 73.78529358 C-34.03816628 71.91157326 -34.03816628 71.91157326 -34 70 C-33.96382065 68.72478989 -33.9276413 67.44957977 -33.8903656 66.13572693 C-33.78217295 61.89683317 -33.73174121 57.65789701 -33.68359375 53.41796875 C-33.66296197 51.86712673 -33.64196419 50.31628954 -33.62062073 48.76545715 C-33.56604128 44.72968518 -33.51635578 40.69386804 -33.46777344 36.65802002 C-33.41708287 32.52132256 -33.36164787 28.38468879 -33.30664062 24.24804688 C-33.19984639 16.1654188 -33.09823462 8.08273662 -33 0 C-30.76572393 -0.16540425 -28.53132469 -0.32914545 -26.296875 -0.4921875 C-25.05260742 -0.5835498 -23.80833984 -0.67491211 -22.52636719 -0.76904297 C-14.98826345 -1.26274597 -7.4786608 -1.20192763 0 0 Z " fill="#12A64F" transform="translate(301,25)"/>
<path d="M0 0 C1.82746476 -0.0038975 3.65492862 -0.0082343 5.48239136 -0.01298523 C9.27930671 -0.020383 13.07612891 -0.02019986 16.87304688 -0.01489258 C21.73405866 -0.0090526 26.594695 -0.02616819 31.45564461 -0.04923725 C35.21487648 -0.06395815 38.97401697 -0.06484946 42.73327255 -0.06172752 C44.52660756 -0.0622398 46.3199478 -0.06745992 48.11325455 -0.07753944 C50.61107449 -0.08987867 53.10814902 -0.08313187 55.60595703 -0.0715332 C56.34052628 -0.07917694 57.07509552 -0.08682068 57.83192444 -0.09469604 C62.22749368 -0.04959186 65.08014179 0.55061436 68.5546875 3.30078125 C69.30078125 5.6328125 69.30078125 5.6328125 68.5546875 8.30078125 C66.47331989 10.51498567 64.0840927 12.22620611 61.6171875 13.98828125 C56.93985898 17.06284861 56.93985898 17.06284861 53.5546875 21.30078125 C53.24199813 24.81853667 53.21566298 26.73574038 55.0546875 29.80078125 C56.94765287 32.95572354 57.1707652 34.68132476 56.5546875 38.30078125 C54.31123804 40.48191267 52.00664245 42.01669528 49.3671875 43.67578125 C46.76769405 46.00636158 46.40244968 47.89842904 45.5546875 51.30078125 C45.38059529 55.55172212 45.6044307 59.79771168 45.80859375 64.04492188 C45.91808775 68.33773076 45.97241797 70.62218591 43.671875 74.359375 C39.74643006 77.95890661 36.45411579 77.62010554 31.29296875 77.6015625 C26.95890333 77.25284459 22.95409088 76.33628961 18.7421875 75.30078125 C5.66993919 72.20111952 -4.48606697 71.88333383 -16.51953125 78.37890625 C-19.21206014 80.14756341 -21.20449245 82.01443663 -23.4453125 84.30078125 C-24.1053125 84.30078125 -24.7653125 84.30078125 -25.4453125 84.30078125 C-25.70828125 84.86925781 -25.97125 85.43773437 -26.2421875 86.0234375 C-27.53108929 88.46314447 -29.04206768 90.5302313 -30.6953125 92.73828125 C-39.5774338 105.34755575 -42.56006172 117.89475822 -43.05847168 133.07762146 C-43.11475904 134.56610176 -43.11475904 134.56610176 -43.17218351 136.08465236 C-43.54443301 146.67894758 -43.61245897 157.27155481 -43.63476562 167.87133789 C-43.64273902 170.01994477 -43.65112921 172.16855014 -43.65989685 174.31715393 C-43.67775775 178.89642442 -43.69284181 183.47569201 -43.70567322 188.05497932 C-43.72620378 195.33854902 -43.75381425 202.62208226 -43.78234863 209.90562439 C-43.84204344 225.39149258 -43.89398003 240.87738345 -43.9453125 256.36328125 C-44.00073238 273.04135419 -44.05777253 289.71941579 -44.12286139 306.3974542 C-44.14620466 312.43234871 -44.16779844 318.46723787 -44.18495178 324.5021534 C-44.26377637 352.11585798 -44.54071634 379.70067077 -45.4453125 407.30078125 C-49.34995094 404.0030366 -53.18223537 400.68898116 -56.80078125 397.07470703 C-57.57848877 396.30015167 -58.35619629 395.52559631 -59.1574707 394.72756958 C-59.9743335 393.90868256 -60.79119629 393.08979553 -61.6328125 392.24609375 C-62.49414795 391.38571503 -63.3554834 390.5253363 -64.24291992 389.6388855 C-66.05607937 387.8264037 -67.86798799 386.01266984 -69.67871094 384.19775391 C-72.43313133 381.43798607 -75.19283623 378.68358443 -77.953125 375.9296875 C-79.72167481 374.16047671 -81.48991429 372.39095565 -83.2578125 370.62109375 C-84.07467529 369.80625519 -84.89153809 368.99141663 -85.7331543 368.15188599 C-89.99327886 363.87449453 -94.10038195 359.52457994 -98.02763367 354.93864441 C-99.6835621 353.02552833 -101.43523389 351.24256652 -103.2578125 349.48828125 C-108.26934584 344.66023654 -108.26934584 344.66023654 -108.69601083 341.36397588 C-108.69633553 340.62400291 -108.69666024 339.88402993 -108.69699478 339.12163353 C-108.70221028 338.26574556 -108.70742577 337.40985759 -108.71279931 336.52803361 C-108.70833787 335.58730394 -108.70387642 334.64657428 -108.69927979 333.67733765 C-108.70239977 332.67813156 -108.70551975 331.67892547 -108.70873427 330.64944041 C-108.71674204 327.28495189 -108.71037949 323.92064236 -108.70410156 320.55615234 C-108.70681043 318.14982497 -108.71037077 315.74349843 -108.71472168 313.33717346 C-108.72291577 307.46639361 -108.72168586 301.59566057 -108.7158964 295.72488199 C-108.71137964 290.94629997 -108.71076709 286.16773226 -108.71294403 281.38914871 C-108.7132505 280.70894925 -108.71355696 280.02874978 -108.71387272 279.32793821 C-108.71451219 277.94594124 -108.71516062 276.56394427 -108.7158179 275.18194731 C-108.72152702 262.20753381 -108.71495733 249.23314853 -108.70421717 236.25873967 C-108.69530927 225.15522628 -108.69680967 214.05175479 -108.70605469 202.94824219 C-108.71679578 190.04195931 -108.72094803 177.13570131 -108.71483016 164.22941458 C-108.71419312 162.84822123 -108.71356438 161.46702787 -108.71294403 160.0858345 C-108.71263548 159.40637634 -108.71232693 158.72691817 -108.71200903 158.02687036 C-108.71029145 153.26787057 -108.71317744 148.5088867 -108.71790314 143.74988937 C-108.72415097 137.31653341 -108.71960146 130.8832373 -108.70811462 124.44988823 C-108.70548938 122.09946891 -108.70619618 119.74904291 -108.71063995 117.39862633 C-108.76964593 82.9910909 -102.8794643 52.45687747 -78.7109375 26.48046875 C-56.5785737 5.18760841 -29.74946552 -0.02674991 0 0 Z " fill="#2C794D" transform="translate(441.4453125,292.69921875)"/>
</svg>
