<?xml version="1.0" encoding="UTF-8"?>
<svg version="1.1" xmlns="http://www.w3.org/2000/svg" width="675" height="675">
<path d="M0 0 C1.04647705 -0.00701431 2.0929541 -0.01402863 3.17114258 -0.02125549 C6.5295039 -0.03866399 9.88768896 -0.04510772 13.24609375 -0.046875 C14.96625198 -0.04788712 14.96625198 -0.04788712 16.72116089 -0.04891968 C33.25316672 -0.03344095 49.36368342 0.33875718 65.68359375 3.203125 C67.2459375 3.46053467 67.2459375 3.46053467 68.83984375 3.72314453 C134.52991649 14.66171468 194.31035967 44.42227017 243.41015625 89.15234375 C245.53123024 91.06568369 247.693341 92.91745552 249.87109375 94.765625 C253.22910126 97.68533836 256.10366034 100.85438308 258.9765625 104.24609375 C260.59620182 106.10293425 262.28482666 107.80709992 264.05859375 109.515625 C268.1458504 113.55776844 271.72830387 117.95822973 275.29833984 122.45849609 C276.2872112 123.70390933 277.28018284 124.94607143 278.27587891 126.18603516 C286.77655077 136.78575832 294.64685771 147.57557721 301.68359375 159.203125 C302.16006348 159.98993652 302.6365332 160.77674805 303.12744141 161.58740234 C332.09237195 209.88773628 351.63109927 266.74799692 351.88671875 323.51953125 C351.89373306 324.5660083 351.90074738 325.61248535 351.90797424 326.69067383 C351.92538274 330.04903515 351.93182647 333.40722021 351.93359375 336.765625 C351.93460587 338.48578323 351.93460587 338.48578323 351.93563843 340.24069214 C351.9201597 356.77269797 351.54796157 372.88321467 348.68359375 389.203125 C348.5119873 390.2446875 348.34038086 391.28625 348.16357422 392.359375 C337.22500407 458.04944774 307.46444858 517.82989092 262.734375 566.9296875 C260.82103506 569.05076149 258.96926323 571.21287225 257.12109375 573.390625 C254.20138039 576.74863251 251.03233567 579.62319159 247.640625 582.49609375 C245.7837845 584.11573307 244.07961883 585.80435791 242.37109375 587.578125 C238.32895031 591.66538165 233.92848902 595.24783512 229.42822266 598.81787109 C228.18280942 599.80674245 226.94064732 600.79971409 225.70068359 601.79541016 C215.10096043 610.29608202 204.31114154 618.16638896 192.68359375 625.203125 C191.89678223 625.67959473 191.1099707 626.15606445 190.29931641 626.64697266 C141.99898247 655.6119032 85.13872183 675.15063052 28.3671875 675.40625 C27.32071045 675.41326431 26.2742334 675.42027863 25.19604492 675.42750549 C21.8376836 675.44491399 18.47949854 675.45135772 15.12109375 675.453125 C13.40093552 675.45413712 13.40093552 675.45413712 11.64602661 675.45516968 C-4.88597922 675.43969095 -20.99649592 675.06749282 -37.31640625 672.203125 C-38.35796875 672.03151855 -39.39953125 671.85991211 -40.47265625 671.68310547 C-106.16272899 660.74453532 -165.94317217 630.98397983 -215.04296875 586.25390625 C-217.16404274 584.34056631 -219.3261535 582.48879448 -221.50390625 580.640625 C-224.86191376 577.72091164 -227.73647284 574.55186692 -230.609375 571.16015625 C-232.22901432 569.30331575 -233.91763916 567.59915008 -235.69140625 565.890625 C-239.7786629 561.84848156 -243.36111637 557.44802027 -246.93115234 552.94775391 C-247.9200237 551.70234067 -248.91299534 550.46017857 -249.90869141 549.22021484 C-258.40936327 538.62049168 -266.27967021 527.83067279 -273.31640625 516.203125 C-273.79287598 515.41631348 -274.2693457 514.62950195 -274.76025391 513.81884766 C-303.72518445 465.51851372 -323.26391177 408.65825308 -323.51953125 351.88671875 C-323.53005272 350.31700317 -323.53005272 350.31700317 -323.54078674 348.71557617 C-323.55819524 345.35721485 -323.56463897 341.99902979 -323.56640625 338.640625 C-323.56708099 337.49385284 -323.56775574 336.34708069 -323.56845093 335.16555786 C-323.5529722 318.63355203 -323.18077407 302.52303533 -320.31640625 286.203125 C-320.05899658 284.64078125 -320.05899658 284.64078125 -319.79638672 283.046875 C-308.85781657 217.35680226 -279.09726108 157.57635908 -234.3671875 108.4765625 C-232.45384756 106.35548851 -230.60207573 104.19337775 -228.75390625 102.015625 C-225.83419289 98.65761749 -222.66514817 95.78305841 -219.2734375 92.91015625 C-217.416597 91.29051693 -215.71243133 89.60189209 -214.00390625 87.828125 C-209.96176281 83.74086835 -205.56130152 80.15841488 -201.06103516 76.58837891 C-199.81562192 75.59950755 -198.57345982 74.60653591 -197.33349609 73.61083984 C-186.73377293 65.11016798 -175.94395404 57.23986104 -164.31640625 50.203125 C-163.13618896 49.48842041 -163.13618896 49.48842041 -161.93212891 48.75927734 C-113.63179497 19.7943468 -56.77153433 0.25561948 0 0 Z " fill="#00C851" transform="translate(323.31640625,-0.203125)"/>
<path d="M0 0 C4.39656173 -0.02465504 8.7930872 -0.04283842 13.18969727 -0.05493164 C14.68644918 -0.05997121 16.18319616 -0.06680287 17.67993164 -0.07543945 C19.82699807 -0.08752159 21.97399962 -0.09323191 24.12109375 -0.09765625 C26.06133423 -0.10551147 26.06133423 -0.10551147 28.04077148 -0.11352539 C31 0 31 0 32 1 C32.8365467 6.45768634 33.18858761 11.83350832 33.31640625 17.34765625 C33.33718735 18.12201523 33.35796844 18.89637421 33.37937927 19.69419861 C33.42234533 21.32529987 33.46342054 22.95645194 33.50268555 24.58764648 C33.56175987 27.03187677 33.62703761 29.47587866 33.69335938 31.91992188 C33.94701145 41.61576311 34.05703804 51.30081756 34 61 C49.96231724 52.78280217 49.96231724 52.78280217 65.6875 44.125 C88.31645119 31.28799603 110.10128102 24.83623776 136.1809082 24.70483398 C137.75619528 24.69336854 139.3314452 24.67300369 140.90649414 24.64331055 C156.22910384 24.35590123 169.39336632 27.19186107 183.6875 32.8125 C185.02373413 33.33287842 185.02373413 33.33287842 186.38696289 33.86376953 C217.58223627 46.26490243 240.75444857 68.91443895 254.5625 99.4375 C266.22740289 128.20337704 266.56129564 161.33194012 254.828125 190.06298828 C247.09405064 208.15324358 232.45283326 226.87701766 216 238 C215.34 238 214.68 238 214 238 C212.50079796 236.07333953 211.11935454 234.1418388 209.75 232.125 C205.75275982 226.37878205 201.57847168 220.81307768 197.25 215.3125 C188.19124323 203.77059427 179.50368588 191.95583396 171 180 C173.91255628 176.80558344 176.66292114 174.53974732 180.375 172.3125 C188.4065995 167.09196032 192.76543724 159.14855194 195 150 C195.40448544 146.83954577 195.4786563 143.74611779 195.4375 140.5625 C195.42505249 139.31146484 195.42505249 139.31146484 195.41235352 138.03515625 C195.2367493 131.63591376 194.26415668 126.58190107 191 121 C190.50242187 120.08992188 190.00484375 119.17984375 189.4921875 118.2421875 C183.98513734 108.84178094 176.52756302 102.1832926 167 97 C166.37222656 96.64164062 165.74445313 96.28328125 165.09765625 95.9140625 C152.61206112 89.53945923 135.04660824 87.81190263 121.6875 91.5 C114.50905853 93.95872367 107.85198328 97.33512846 101.15527344 100.8671875 C98.97876507 102.01116109 96.79166654 103.13230502 94.6015625 104.25 C83.41117336 110.00186722 72.55474131 116.26871212 61.71484375 122.65234375 C56.18692158 125.90433324 50.61288707 129.06598206 44.99536133 132.16040039 C43.32040975 133.0894259 41.65977723 134.04412829 40 135 C38.95867916 135.55242961 37.91735832 136.10485921 36.8444823 136.67402911 C33.71547386 138.75087033 33.71547386 138.75087033 33.24839699 142.20267034 C33.24763755 143.48308729 33.24687811 144.76350424 33.24609566 146.08272171 C33.2331785 147.15838532 33.2331785 147.15838532 33.22000039 148.2557795 C33.19834888 150.6718711 33.21962125 153.08569857 33.24050903 155.50177002 C33.2337649 157.24589977 33.22438893 158.990021 33.21259964 160.73412395 C33.18778881 165.53678609 33.20045387 170.33874064 33.21906328 175.14140415 C33.23261206 180.31662107 33.21165603 185.49170943 33.19483948 190.66690063 C33.17043963 199.63652925 33.16801836 208.60594938 33.18042374 217.57559967 C33.19832827 230.54424512 33.18324335 243.5126861 33.16004442 256.48131546 C33.1233067 277.52076272 33.11333801 298.56013447 33.12011719 319.59960938 C33.12664632 340.04039071 33.12062194 360.48110459 33.09765625 380.921875 C33.09554027 382.81106686 33.09554027 382.81106686 33.09338154 384.73842421 C33.08622723 391.05661999 33.07882551 397.37481546 33.07130075 403.69301081 C33.00917187 456.12867901 32.99045001 508.56429924 33 561 C31.89617226 560.06216762 30.79354379 559.1229236 29.69140625 558.18310547 C29.07724854 557.66021942 28.46309082 557.13733337 27.83032227 556.59860229 C25.10574393 554.21895732 22.54516181 551.69377889 20 549.125 C19.48091064 548.60397705 18.96182129 548.0829541 18.42700195 547.54614258 C15.03757861 544.11861799 11.77538256 540.6202747 8.71350867 536.893354 C7.08595595 534.97563586 7.08595595 534.97563586 5.18706459 533.633398 C1.89542853 531.06465798 0.2240834 529.07361509 -0.64147651 524.92659581 C-0.88455213 520.96635942 -0.90024355 517.03768423 -0.84178162 513.07362366 C-0.8448357 511.53727249 -0.85096766 510.00092489 -0.85990578 508.46459669 C-0.87554183 504.24995942 -0.84758379 500.03656978 -0.81245935 495.82209146 C-0.78221399 491.27479729 -0.79246083 486.72757277 -0.79777527 482.1802063 C-0.80144476 474.30403553 -0.7794931 466.42827085 -0.7401104 458.55220222 C-0.68320715 447.16481871 -0.66498889 435.77763144 -0.65619446 424.39012115 C-0.64087619 405.91451048 -0.59429747 387.43911622 -0.52807617 368.96362305 C-0.46381747 351.01701947 -0.41427121 333.07047469 -0.38452148 315.1237793 C-0.38268242 314.017443 -0.38084336 312.91110671 -0.37894856 311.77124507 C-0.36981326 306.22104945 -0.36096731 300.67085341 -0.35226524 295.12065709 C-0.27970484 249.08028816 -0.15641857 203.04015525 0 157 C-1.92316137 157.95579048 -3.84566236 158.91290981 -5.7678833 159.87059021 C-7.37387831 160.66987017 -7.37387831 160.66987017 -9.01231766 161.4852972 C-12.35938579 163.18220232 -15.5747767 164.98756275 -18.796875 166.91015625 C-19.36021545 167.24494492 -19.92355591 167.57973358 -20.50396729 167.92466736 C-22.25500769 168.96670938 -24.00249898 170.01453618 -25.75 171.0625 C-26.92816757 171.76403785 -28.10655242 172.46521094 -29.28515625 173.16601562 C-30.43497273 173.85143351 -31.58471374 174.53697804 -32.734375 175.22265625 C-33.81783203 175.8686377 -34.90128906 176.51461914 -36.01757812 177.18017578 C-38.58530941 178.7469627 -41.0799704 180.38487639 -43.578125 182.05859375 C-47 184 -47 184 -49.06274414 183.74267578 C-52.03776248 182.60215835 -53.88139422 180.62000631 -56.1875 178.4375 C-56.70159424 177.9542627 -57.21568848 177.47102539 -57.74536133 176.97314453 C-58.88511079 175.90057713 -60.02192623 174.82488591 -61.15625 173.74658203 C-63.08265102 171.9217048 -65.02403412 170.11393207 -66.96875 168.30859375 C-77.21488072 158.77070435 -87.16284634 148.95809464 -97 139 C-95.55475047 135.35409631 -93.91786195 134.02773855 -90.5390625 132.109375 C-89.60723145 131.57320557 -88.67540039 131.03703613 -87.71533203 130.48461914 C-86.69552246 129.91219482 -85.67571289 129.33977051 -84.625 128.75 C-83.56007324 128.1408374 -82.49514648 127.5316748 -81.39794922 126.90405273 C-79.11286339 125.59845511 -76.82602022 124.29681176 -74.53515625 123.00146484 C-71.04810762 121.02935848 -67.5702207 119.04148396 -64.09375 117.05078125 C-60.00701456 114.71094786 -55.91890821 112.37356398 -51.82826233 110.04057312 C-41.13202247 103.94001717 -30.45530624 97.80636741 -19.80664062 91.62304688 C-17.23734323 90.13725276 -14.65936292 88.66803633 -12.078125 87.203125 C-10.69756559 86.40685839 -9.31732503 85.61003853 -7.9375 84.8125 C-6.79152344 84.15894531 -5.64554687 83.50539063 -4.46484375 82.83203125 C-1.61053412 80.71052378 -1.51421114 80.37617132 -1 77 C-0.88308123 74.4843691 -0.81520265 71.99391545 -0.79467773 69.47753906 C-0.78477814 68.72593002 -0.77487854 67.97432098 -0.76467896 67.19993591 C-0.73315534 64.72186404 -0.70834277 62.24377302 -0.68359375 59.765625 C-0.66301633 58.04497791 -0.64201964 56.3243358 -0.62062073 54.60369873 C-0.56548149 50.07952908 -0.51603633 45.55531443 -0.46777344 41.03106689 C-0.41749887 36.4125977 -0.36184391 31.7941937 -0.30664062 27.17578125 C-0.19915873 18.11724322 -0.09769168 9.05864853 0 0 Z " fill="#FEFEFE" transform="translate(260,15)"/>
<path d="M0 0 C1.2642984 -0.00744736 1.2642984 -0.00744736 2.55413818 -0.01504517 C5.33224309 -0.02960816 8.11029099 -0.03645707 10.88842773 -0.04199219 C12.82226055 -0.04774609 14.75609335 -0.05350379 16.68992615 -0.05926514 C20.73908758 -0.06975676 24.78822924 -0.07561224 28.83740234 -0.07910156 C34.02834327 -0.08459893 39.21902357 -0.10866113 44.40988255 -0.13707352 C48.40155305 -0.15568001 52.39316032 -0.16090431 56.38487053 -0.16243744 C58.29905569 -0.16546626 60.21323968 -0.17350249 62.12738228 -0.18662262 C64.80127115 -0.20365028 67.47451663 -0.20181161 70.1484375 -0.1953125 C70.93971542 -0.20452728 71.73099335 -0.21374207 72.54624939 -0.22323608 C76.8042549 -0.19076539 79.43303703 0.08404466 82.50952148 3.16113281 C82.41577148 4.86425781 82.41577148 4.86425781 81.50952148 7.16113281 C78.80445275 9.29900972 76.06349088 11.23086382 73.16967773 13.09863281 C70.62692357 14.88818808 68.85198045 16.15344454 67.83007812 19.16040039 C67.08914022 24.14359341 68.11649993 26.85369402 70.50952148 31.16113281 C70.88061523 33.65332031 70.88061523 33.65332031 70.50952148 36.16113281 C68.61108398 37.75097656 68.61108398 37.75097656 66.13452148 39.09863281 C63.13804117 40.73004987 61.7672981 41.65332062 60.20874023 44.72363281 C59.1113206 50.11876842 59.53638275 55.43177223 59.85131836 60.90527344 C59.98263558 65.39362875 59.98706283 67.48297266 57.33374023 71.25097656 C52.52010918 74.50666893 48.12213417 73.7769166 42.50952148 73.16113281 C40.14927128 72.69068657 37.7950683 72.18912604 35.44702148 71.66113281 C24.40669904 69.29859468 10.65768364 67.29785458 0.63061523 73.57128906 C-0.0693457 74.0959375 -0.76930664 74.62058594 -1.49047852 75.16113281 C-2.24200195 75.69609375 -2.99352539 76.23105469 -3.76782227 76.78222656 C-10.75622678 82.33711221 -15.04326578 89.56157851 -19.49047852 97.16113281 C-20.1749707 98.29615234 -20.1749707 98.29615234 -20.87329102 99.45410156 C-30.06972765 115.97362663 -26.64588255 141.35295496 -26.67993164 159.63378906 C-26.68789413 162.03250772 -26.69628359 164.43122499 -26.70506287 166.8299408 C-26.72297947 171.95555205 -26.73804345 177.08116054 -26.75083923 182.20678711 C-26.76949324 189.62917513 -26.79396214 197.05153265 -26.82021314 204.47389722 C-26.86280521 216.53776432 -26.90196811 228.60163963 -26.93823242 240.66552734 C-26.94039522 241.38459802 -26.94255803 242.10366869 -26.94478637 242.84452939 C-26.96231563 248.68164199 -26.97967332 254.5187551 -26.99698925 260.35586834 C-27.0121624 265.47048145 -27.02739272 270.58509439 -27.04272461 275.69970703 C-27.04488348 276.42030977 -27.04704235 277.1409125 -27.04926664 277.88335168 C-27.08543648 289.91752057 -27.12538389 301.95167408 -27.1680274 313.98582172 C-27.19174672 320.72582265 -27.21341696 327.46581879 -27.2301178 334.20584106 C-27.24586271 340.53596774 -27.26592581 346.8660658 -27.28926277 353.1961689 C-27.29699058 355.51364204 -27.3030724 357.83112137 -27.30735588 360.14860344 C-27.31344668 363.32078151 -27.32551574 366.49288496 -27.33898926 369.66503906 C-27.33928524 370.57331986 -27.33958123 371.48160067 -27.33988619 372.41740513 C-27.37527273 378.70847001 -27.8350992 384.90519128 -28.49047852 391.16113281 C-33.99770295 386.57662276 -39.07929823 381.69264909 -44.11547852 376.59863281 C-44.85282227 375.85677734 -45.59016602 375.11492187 -46.34985352 374.35058594 C-47.72554813 372.96626241 -49.10020214 371.58090327 -50.47338867 370.1940918 C-54.40579002 366.23075289 -58.36297344 362.2926139 -62.32641602 358.36035156 C-64.172842 356.52318416 -66.01919397 354.68594236 -67.86547852 352.84863281 C-68.78586914 351.93662109 -69.70625977 351.02460937 -70.65454102 350.08496094 C-75.28913257 345.46692149 -79.80408762 340.81693035 -84.03979492 335.82836914 C-85.43762191 334.14143166 -85.43762191 334.14143166 -87.05772561 332.81164384 C-88.84435847 330.75346812 -88.86541458 329.78025924 -88.86520863 327.08572006 C-88.87601844 325.83661366 -88.87601844 325.83661366 -88.88704664 324.56227279 C-88.87967235 323.64741552 -88.87229807 322.73255825 -88.86470032 321.78997803 C-88.86867472 320.81794567 -88.87264913 319.84591332 -88.87674397 318.84442544 C-88.88640411 315.57191817 -88.87452581 312.29983922 -88.86279297 309.02734375 C-88.86521989 306.68673541 -88.86893824 304.34612811 -88.87385559 302.00552368 C-88.88328799 295.63294159 -88.87381605 289.26051249 -88.86052346 282.88794231 C-88.85036652 276.89256018 -88.85282182 270.89718739 -88.85472598 264.90179995 C-88.85791856 253.00774964 -88.84623871 241.11375912 -88.82666016 229.21972656 C-88.80770639 217.70212986 -88.80055883 206.18460338 -88.80615234 194.66699219 C-88.81222904 182.11743646 -88.81199464 169.56791166 -88.80066651 157.01835847 C-88.79469648 150.37970366 -88.79098603 143.74106737 -88.79363441 137.10240936 C-88.79552901 130.84797449 -88.78732389 124.59362886 -88.77157402 118.33921432 C-88.76735799 116.05245966 -88.76646238 113.76569589 -88.76926422 111.47893906 C-88.78467147 96.64473684 -88.72919283 81.91207017 -84.30297852 67.59863281 C-84.08794678 66.89375732 -83.87291504 66.18888184 -83.65136719 65.46264648 C-75.58935505 40.20167511 -58.10230229 20.50959964 -35.13500977 7.86425781 C-28.34286323 4.5510156 -20.80406697 2.92334361 -13.49047852 1.16113281 C-12.76937393 0.98229553 -12.04826935 0.80345825 -11.30531311 0.61920166 C-7.53605653 0.00581606 -3.80783264 0.00539322 0 0 Z " fill="#FEFEFE" transform="translate(411.490478515625,274.8388671875)"/>
</svg>
