<?xml version="1.0" encoding="UTF-8" standalone="no"?>
<svg
   width="750"
   height="750"
   version="1.1"
   id="svg5"
   xmlns:inkscape="http://www.inkscape.org/namespaces/inkscape"
   xmlns:sodipodi="http://sodipodi.sourceforge.net/DTD/sodipodi-0.dtd"
   xmlns="http://www.w3.org/2000/svg"
   xmlns:svg="http://www.w3.org/2000/svg">
  <sodipodi:namedview
     id="namedview5"
     pagecolor="#ffffff"
     bordercolor="#000000"
     borderopacity="0.25"
     inkscape:showpageshadow="2"
     inkscape:pageopacity="0.0"
     inkscape:pagecheckerboard="0"
     inkscape:deskcolor="#d1d1d1" />
  <defs
     id="defs4">
    <mask
       id="overlay_mask">
      <g
         fill="white"
         id="g4">
        <g
           transform="translate(194.02173913043478, 48.913043478260875) scale(1.6304347826086956)"
           id="g3">
          <g
             transform="translate(0, 0) scale(1 1) rotate(0)"
             fill="#ffffff"
             id="g2">
            <svg
               width="222.0"
               height="400.0"
               viewBox="0 0 222 400"
               version="1.1"
               id="svg1">
              <g
                 stroke="none"
                 id="g1">
                <path
                   d="M 60.474777448071194,0.4154302670622769 C 60.237388724035554,0.5934718100890279 60.05934718100883,11.632047477744749 60.05934718100883,24.925816023738847 C 60.05934718100883,47.181008902077096 59.99999999999994,49.139465875370846 59.0504451038575,49.970326409495456 C 58.4569732937685,50.50445103857557 51.33531157270025,54.71810089020762 43.14540059347178,59.34718100890201 C 10.385756676557861,77.98219584569723 3.0267062314540283,82.25519287833815 1.5430267062314726,83.38278931750735 L 0.0,84.62908011869423 L 14.896142433234417,99.05044510385746 C 25.934718100890166,109.73293768545982 29.970326409495527,113.35311572700284 30.563798219584555,112.8783382789316 C 30.919881305637972,112.52225519287818 36.617210682492555,109.1988130563797 43.14540059347178,105.45994065281884 C 49.673590504451,101.72106824925804 55.96439169139461,98.10089020771501 57.21068249258158,97.38872403560815 C 58.39762611275961,96.67655786350137 59.52522255192872,96.32047477744796 59.70326409495544,96.61721068249246 C 59.881305637982166,96.97329376854587 60.05934718100883,148.13056379821944 60.05934718100883,210.32640949554877 L 60.11869436201775,323.5014836795249 L 63.560830860534054,327.1810089020768 C 65.51928783382783,329.19881305637955 70.02967359050439,333.9465875370917 73.64985163204744,337.6854599406525 L 80.2373887240355,344.5103857566762 L 80.35608308605333,214.95548961424316 L 80.53412462908005,85.40059347180998 L 81.89910979228478,84.3323442136497 C 84.56973293768539,82.31454005934707 122.25519287833822,61.12759643916907 127.18100890207705,58.813056379821845 C 135.72700296735889,54.896142433234374 142.2551928783381,53.94658753709193 150.86053412462894,55.430267062314485 C 162.07715133531138,57.388724035608206 170.97922848664672,63.26409495548951 176.67655786350133,72.46290801186932 C 181.18694362017789,79.76261127596429 181.83976261127583,90.26706231453993 178.21958456973277,97.62611275964382 C 176.14243323442122,101.78041543026696 172.16617210682477,105.75667655786334 167.7151335311571,107.95252225519276 C 166.29080118694344,108.66468842729954 165.10385756676538,109.55489614243307 165.10385756676538,109.9703264094954 C 165.10385756676538,110.32640949554884 166.29080118694344,112.1068249258159 167.7151335311571,113.88724035608296 C 169.13946587537077,115.72700296735893 174.48071216617194,122.78931750741826 179.58456973293755,129.67359050445089 C 184.68842729970305,136.49851632047466 189.55489614243305,143.0267062314539 190.38575667655766,144.09495548961405 L 191.86943620178022,145.99406528189894 L 194.59940652818972,144.09495548961405 C 199.16913946587522,140.77151335311555 208.54599406528172,130.5044510385755 211.92878338278916,124.9851632047476 C 222.314540059347,108.24925816023726 224.27299703264077,84.45103857566754 216.97329376854583,64.03560830860526 C 209.49554896142416,43.02670623145396 192.16617210682472,26.587537091988068 169.49554896142416,18.991097922848653 C 159.58456973293755,15.727002967359041 152.10682492581589,14.658753709198763 141.6617210682491,15.01483679525218 C 132.52225519287822,15.37091988130561 127.00296735905033,16.320474777448055 118.75370919881294,19.0504451038575 C 110.97922848664683,21.60237388724032 107.47774480712155,23.323442136498457 93.5905044510385,31.15727002967357 C 86.88427299703255,35.01483679525218 81.24629080118689,37.98219584569729 81.06824925816017,37.80415430267054 C 80.89020771513344,37.626112759643874 80.59347181008894,29.376854599406514 80.41543026706222,19.465875370919832 C 80.2373887240355,9.020771513353068 79.82195845697322,1.1869436201780417 79.46587537091983,0.7121661721067909 C 79.0504451038575,0.17804154302667996 76.37982195845689,0.0 69.85163204747766,0.0 C 64.92581602373883,0.0 60.65281899109786,0.17804154302667996 60.474777448071194,0.4154302670622769"
                   id="i1"
                   class="c1" />
                <path
                   d="M 150.26706231453988,159.70326409495533 C 130.74183976261116,161.18694362017789 114.59940652818977,172.58160237388705 105.45994065281889,191.3353115727001 C 101.78041543026694,198.8724035608306 100.17804154302661,204.747774480712 99.28783382789311,213.59050445103838 C 98.87240356083078,217.50741839762588 98.63501483679516,245.34124629080094 98.63501483679516,290.86053412462877 L 98.63501483679516,361.9584569732934 L 101.42433234421355,365.10385756676527 C 105.40059347181,369.61424332344177 135.19287833827883,399.9999999999996 135.60830860534116,399.9999999999996 C 135.84569732937672,399.9999999999996 136.08308605341233,362.13649851632016 136.20178041543016,315.8456973293766 C 136.37982195845683,221.06824925816005 135.9643916913945,229.08011869436183 141.127596439169,218.51632047477727 C 144.56973293768527,211.45400593471788 149.49554896142422,206.23145400593455 155.3709198813055,203.4421364985161 C 159.05044510385744,201.66172106824905 159.99999999999983,201.48367952522239 164.51038575667638,201.54302670623122 C 168.13056379821944,201.54302670623122 171.21661721068233,202.0178041543025 175.48961424332327,203.2047477744805 C 182.07715133531138,205.0445103857565 185.69732937685444,205.0445103857565 187.774480712166,203.2047477744805 C 189.79228486646866,201.36498516320455 190.1483679525221,199.5845697329375 189.37685459940639,195.01483679525205 C 188.72403560830844,191.3353115727001 188.7833827893174,190.38575667655766 189.67359050445089,187.65578635014816 C 190.62314540059327,184.86646884272977 191.0385756676556,184.39169139465855 193.64985163204727,183.08605341246272 C 196.97329376854583,181.3649851632046 197.1513353115725,180.59347181008883 195.07418397626094,177.15133531157255 C 192.8783382789316,173.64985163204733 193.11572700296716,171.45400593471794 195.84569732937672,169.08011869436183 C 197.09198813056366,167.95252225519272 199.34718100890188,166.17210682492566 200.89020771513339,165.16320474777433 C 204.03560830860516,162.96735905044494 204.33234421364966,162.0178041543025 202.19584569732916,160.35608308605322 C 200.83086053412444,159.287833827893 199.64391691394638,159.2284866468841 178.0415430267061,159.287833827893 C 165.51928783382778,159.287833827893 153.05637982195833,159.46587537091972 150.26706231453988,159.70326409495533"
                   id="i2"
                   class="c2" />
              </g>
            </svg>
          </g>
        </g>
      </g>
    </mask>
  </defs>
  <style
     id="style4" />
  <rect
     width="100%"
     height="100%"
     fill="#00c851"
     id="rect4" />
  <rect
     width="100%"
     height="100%"
     fill="#fff"
     mask="url(#overlay_mask)"
     id="rect5" />
</svg>
