<?xml version="1.0" encoding="UTF-8" standalone="no"?>
<svg
   width="512"
   height="512"
   version="1.1"
   id="svg12"
   xmlns:inkscape="http://www.inkscape.org/namespaces/inkscape"
   xmlns:sodipodi="http://sodipodi.sourceforge.net/DTD/sodipodi-0.dtd"
   xmlns="http://www.w3.org/2000/svg"
   xmlns:svg="http://www.w3.org/2000/svg">
  <sodipodi:namedview
     id="namedview12"
     pagecolor="#ffffff"
     bordercolor="#000000"
     borderopacity="0.25"
     inkscape:showpageshadow="2"
     inkscape:pageopacity="0.0"
     inkscape:pagecheckerboard="0"
     inkscape:deskcolor="#d1d1d1" />
  <defs
     id="defs6">
    <linearGradient
       id="stgra_4762"
       x1="0%"
       y1="0%"
       x2="100%"
       y2="100%"
       gradientUnits="objectBoundingBox">
      <stop
         offset="0%"
         style="stop-color:#00f260"
         id="stop1" />
      <stop
         offset="50%"
         style="stop-color:#0575e6"
         id="stop2" />
      <stop
         offset="100%"
         style="stop-color:#1fa2ff"
         id="stop3" />
    </linearGradient>
    <linearGradient
       id="stgra_1419"
       x1="0%"
       y1="0%"
       x2="0%"
       y2="100%"
       gradientUnits="userSpaceOnUse">
      <stop
         offset="0%"
         style="stop-color:#c0c0c0"
         id="stop4" />
      <stop
         offset="50%"
         style="stop-color:#d3d3d3"
         id="stop5" />
      <stop
         offset="100%"
         style="stop-color:#e6e6e6"
         id="stop6" />
    </linearGradient>
  </defs>
  <style
     id="style6" />
  <rect
     width="100%"
     height="100%"
     fill="url(#stgra_1419)"
     id="rect6" />
  <g
     transform="translate(10.57387206679357, 89.05450626635758) scale(0.5163023470114037)"
     id="g12">
    <g
       transform="translate(364.35350043215215, 0) scale(1 1) rotate(0)"
       fill="url(#stgra_3847)"
       id="g9">
      <svg
         width="222.0"
         height="400.0"
         viewBox="0 0 222 400"
         version="1.1"
         id="svg8">
        <defs
           id="defs8">
          <linearGradient
             id="stgra_3847"
             x1="50%"
             y1="0%"
             x2="50%"
             y2="100%"
             gradientUnits="userSpaceOnUse">
            <stop
               offset="0%"
               style="stop-color:#00c851"
               id="stop7" />
            <stop
               offset="100%"
               style="stop-color:#464c4c"
               id="stop8" />
          </linearGradient>
        </defs>
        <g
           stroke="none"
           id="g8">
          <path
             d="M 60.474777448071194,0.4154302670622769 C 60.237388724035554,0.5934718100890279 60.05934718100883,11.632047477744749 60.05934718100883,24.925816023738847 C 60.05934718100883,47.181008902077096 59.99999999999994,49.139465875370846 59.0504451038575,49.970326409495456 C 58.4569732937685,50.50445103857557 51.33531157270025,54.71810089020762 43.14540059347178,59.34718100890201 C 10.385756676557861,77.98219584569723 3.0267062314540283,82.25519287833815 1.5430267062314726,83.38278931750735 L 0.0,84.62908011869423 L 14.896142433234417,99.05044510385746 C 25.934718100890166,109.73293768545982 29.970326409495527,113.35311572700284 30.563798219584555,112.8783382789316 C 30.919881305637972,112.52225519287818 36.617210682492555,109.1988130563797 43.14540059347178,105.45994065281884 C 49.673590504451,101.72106824925804 55.96439169139461,98.10089020771501 57.21068249258158,97.38872403560815 C 58.39762611275961,96.67655786350137 59.52522255192872,96.32047477744796 59.70326409495544,96.61721068249246 C 59.881305637982166,96.97329376854587 60.05934718100883,148.13056379821944 60.05934718100883,210.32640949554877 L 60.11869436201775,323.5014836795249 L 63.560830860534054,327.1810089020768 C 65.51928783382783,329.19881305637955 70.02967359050439,333.9465875370917 73.64985163204744,337.6854599406525 L 80.2373887240355,344.5103857566762 L 80.35608308605333,214.95548961424316 L 80.53412462908005,85.40059347180998 L 81.89910979228478,84.3323442136497 C 84.56973293768539,82.31454005934707 122.25519287833822,61.12759643916907 127.18100890207705,58.813056379821845 C 135.72700296735889,54.896142433234374 142.2551928783381,53.94658753709193 150.86053412462894,55.430267062314485 C 162.07715133531138,57.388724035608206 170.97922848664672,63.26409495548951 176.67655786350133,72.46290801186932 C 181.18694362017789,79.76261127596429 181.83976261127583,90.26706231453993 178.21958456973277,97.62611275964382 C 176.14243323442122,101.78041543026696 172.16617210682477,105.75667655786334 167.7151335311571,107.95252225519276 C 166.29080118694344,108.66468842729954 165.10385756676538,109.55489614243307 165.10385756676538,109.9703264094954 C 165.10385756676538,110.32640949554884 166.29080118694344,112.1068249258159 167.7151335311571,113.88724035608296 C 169.13946587537077,115.72700296735893 174.48071216617194,122.78931750741826 179.58456973293755,129.67359050445089 C 184.68842729970305,136.49851632047466 189.55489614243305,143.0267062314539 190.38575667655766,144.09495548961405 L 191.86943620178022,145.99406528189894 L 194.59940652818972,144.09495548961405 C 199.16913946587522,140.77151335311555 208.54599406528172,130.5044510385755 211.92878338278916,124.9851632047476 C 222.314540059347,108.24925816023726 224.27299703264077,84.45103857566754 216.97329376854583,64.03560830860526 C 209.49554896142416,43.02670623145396 192.16617210682472,26.587537091988068 169.49554896142416,18.991097922848653 C 159.58456973293755,15.727002967359041 152.10682492581589,14.658753709198763 141.6617210682491,15.01483679525218 C 132.52225519287822,15.37091988130561 127.00296735905033,16.320474777448055 118.75370919881294,19.0504451038575 C 110.97922848664683,21.60237388724032 107.47774480712155,23.323442136498457 93.5905044510385,31.15727002967357 C 86.88427299703255,35.01483679525218 81.24629080118689,37.98219584569729 81.06824925816017,37.80415430267054 C 80.89020771513344,37.626112759643874 80.59347181008894,29.376854599406514 80.41543026706222,19.465875370919832 C 80.2373887240355,9.020771513353068 79.82195845697322,1.1869436201780417 79.46587537091983,0.7121661721067909 C 79.0504451038575,0.17804154302667996 76.37982195845689,0.0 69.85163204747766,0.0 C 64.92581602373883,0.0 60.65281899109786,0.17804154302667996 60.474777448071194,0.4154302670622769"
             id="i1"
             class="c1" />
          <path
             d="M 150.26706231453988,159.70326409495533 C 130.74183976261116,161.18694362017789 114.59940652818977,172.58160237388705 105.45994065281889,191.3353115727001 C 101.78041543026694,198.8724035608306 100.17804154302661,204.747774480712 99.28783382789311,213.59050445103838 C 98.87240356083078,217.50741839762588 98.63501483679516,245.34124629080094 98.63501483679516,290.86053412462877 L 98.63501483679516,361.9584569732934 L 101.42433234421355,365.10385756676527 C 105.40059347181,369.61424332344177 135.19287833827883,399.9999999999996 135.60830860534116,399.9999999999996 C 135.84569732937672,399.9999999999996 136.08308605341233,362.13649851632016 136.20178041543016,315.8456973293766 C 136.37982195845683,221.06824925816005 135.9643916913945,229.08011869436183 141.127596439169,218.51632047477727 C 144.56973293768527,211.45400593471788 149.49554896142422,206.23145400593455 155.3709198813055,203.4421364985161 C 159.05044510385744,201.66172106824905 159.99999999999983,201.48367952522239 164.51038575667638,201.54302670623122 C 168.13056379821944,201.54302670623122 171.21661721068233,202.0178041543025 175.48961424332327,203.2047477744805 C 182.07715133531138,205.0445103857565 185.69732937685444,205.0445103857565 187.774480712166,203.2047477744805 C 189.79228486646866,201.36498516320455 190.1483679525221,199.5845697329375 189.37685459940639,195.01483679525205 C 188.72403560830844,191.3353115727001 188.7833827893174,190.38575667655766 189.67359050445089,187.65578635014816 C 190.62314540059327,184.86646884272977 191.0385756676556,184.39169139465855 193.64985163204727,183.08605341246272 C 196.97329376854583,181.3649851632046 197.1513353115725,180.59347181008883 195.07418397626094,177.15133531157255 C 192.8783382789316,173.64985163204733 193.11572700296716,171.45400593471794 195.84569732937672,169.08011869436183 C 197.09198813056366,167.95252225519272 199.34718100890188,166.17210682492566 200.89020771513339,165.16320474777433 C 204.03560830860516,162.96735905044494 204.33234421364966,162.0178041543025 202.19584569732916,160.35608308605322 C 200.83086053412444,159.287833827893 199.64391691394638,159.2284866468841 178.0415430267061,159.287833827893 C 165.51928783382778,159.287833827893 153.05637982195833,159.46587537091972 150.26706231453988,159.70326409495533"
             id="i2"
             class="c2" />
        </g>
      </svg>
    </g>
    <g
       transform="translate(68.16248919619709, 564.1198501872659) rotate(0)"
       id="g10">
      <path
         d="M 18.3,10.8 Q 16.35,10.8 15,9.45 13.8,8.25 13.8,6.3 L 12,-102 q 0,-2.4 1.5,-3.45 1.5,-1.05 3,-1.05 1.65,-0.3 3,0.9 1.5,1.2 1.5,3.45 l 0.9,51.45 q 4.35,-6 12.45,-12.45 8.1,-6.45 18.45,-12.75 10.35,-6.3 21.45,-12.15 11.25,-5.85 21.9,-10.65 1.2,-0.45 2.1,-0.45 2.7,0 3.9,2.55 0.45,1.05 0.45,2.1 0,2.7 -2.55,3.9 -6.75,3.3 -15.6,7.8 -8.7,4.35 -18,9.45 -9.15,5.1 -17.4,10.5 -8.1,5.4 -13.8,10.5 -5.7,4.95 -7.35,9.15 1.65,3.9 7.2,8.4 5.7,4.5 13.8,9.3 8.1,4.65 17.4,9.15 9.3,4.35 18.6,8.1 9.3,3.75 17.25,6.45 3,1.5 3,3.9 0,1.2 -0.3,1.65 -1.2,3 -4.05,3 -0.45,0 -1.65,-0.3 -9.9,-3.75 -21.3,-8.4 -11.4,-4.8 -22.5,-10.2 -10.95,-5.4 -19.8,-11.1 -8.85,-5.85 -13.5,-11.7 l 0.75,41.1 q 0,2.25 -1.5,3.3 -1.35,1.05 -3,1.35 z M 185.39995,8.85 q -6.15,0.45 -13.35,0.6 -7.2,0.3 -14.55,0.3 -9.15,0 -17.85,-0.45 -8.55,-0.3 -15.45,-1.05 -4.05,-0.45 -4.05,-4.8 0.3,-1.95 1.5,-3.15 1.35,-1.05 3.3,-0.75 2.1,0.15 4.35,0.3 2.25,0.15 6.9,0.3 4.8,0.15 14.25,0.45 v -89.55 q 0,-0.9 0.3,-1.8 l -24.3,1.35 q -2.4,0.45 -3.75,-1.2 -1.2,-1.65 -1.2,-3.45 0,-1.65 0.9,-2.85 1.05,-1.35 3,-1.5 7.95,-0.75 15.75,-1.2 7.95,-0.45 15.9,-0.45 6.6,0 13.35,0.3 6.9,0.3 13.8,0.9 2.25,0 3.15,1.8 1.05,1.65 1.05,3.15 -0.75,4.5 -4.95,4.05 -5.4,-0.6 -12,-0.75 -6.6,-0.15 -12.3,-0.15 0.15,0.15 0.3,1.8 V 0.6 q 5.25,0 10.65,-0.15 5.55,-0.15 14.85,-0.45 2.25,-0.3 3.45,1.05 1.2,1.5 1.35,3.15 0,1.8 -1.2,3 -1.05,1.35 -3.15,1.65 z M 249.90005,-45 q -9.6,0 -15.45,-5.85 -5.85,-6 -5.85,-14.85 0,-9.3 5.85,-15 6,-5.7 15.45,-5.7 9.3,0 15.15,5.85 6,5.7 6,14.85 0,9.45 -6.15,15.15 -6.15,5.55 -15,5.55 z m 0,-9 q 6,0 9.15,-3.3 3.15,-3.3 3.15,-8.4 0,-5.55 -3.3,-8.55 -3.3,-3.15 -9,-3.15 -6,0 -9.15,3.3 -3.15,3.15 -3.15,8.4 0,5.4 3.3,8.55 3.3,3.15 9,3.15 z m -18.9,82.8 q -6.75,0 -13.05,-2.85 -6.3,-2.85 -10.95,-7.8 -4.65,-4.95 -6.6,-11.25 -0.15,-0.45 -0.15,-1.2 0,-1.65 1.05,-3 1.2,-1.35 3.15,-1.35 1.5,0 2.85,0.75 1.35,0.9 1.8,2.4 1.35,4.2 4.8,7.65 3.45,3.45 7.95,5.55 4.65,2.1 9.45,2.1 5.85,0 11.85,-3.75 6.15,-3.75 9.15,-8.85 2.25,-4.2 3.3,-8.7 1.05,-4.5 1.05,-9.15 0,-5.7 -1.35,-11.4 -1.35,-5.85 -3.9,-11.25 -0.45,-1.2 -0.45,-2.1 0,-2.1 1.35,-3.15 1.35,-1.2 3.3,-1.2 2.7,0 3.9,2.55 3,6.45 4.5,13.35 1.65,6.9 1.65,13.5 0,6.45 -1.8,12.75 -1.65,6.3 -5.4,11.55 -2.85,4.05 -7.35,7.35 -4.5,3.45 -9.75,5.4 -5.25,2.1 -10.35,2.1 z M 334.35002,12.15 q -1.2,0.15 -2.55,0.15 -1.2,0 -2.4,0 -13.35,0 -23.85,-5.7 -10.5,-5.55 -16.5,-15.45 -6,-9.9 -6,-22.65 0,-12 4.65,-22.05 4.8,-10.2 13.5,-16.95 8.7,-6.75 20.55,-8.55 1.65,-0.3 3.6,-0.45 1.95,-0.15 3.9,-0.15 8.1,0 16.8,2.25 8.85,2.1 14.85,6 0.75,-1.65 2.4,-1.95 1.65,-0.45 2.7,-0.15 1.65,0.15 2.55,1.5 0.9,1.35 0.9,3.15 -0.15,3.45 -0.3,6.75 0,3.3 0,6.6 0,16.8 2.4,29.85 2.55,13.05 9.45,22.8 0.9,1.35 0.9,2.7 0,1.8 -1.5,3 -1.35,1.2 -3,1.2 -2.25,0 -3.75,-1.95 -1.5,-2.1 -3,-4.65 -1.35,-2.55 -2.25,-4.5 -6.15,8.55 -15,13.2 -8.85,4.8 -19.05,6 z m -3,-8.7 q 10.2,0 18.75,-5.7 8.7,-5.7 14.1,-15.6 -2.25,-8.4 -3.3,-19.5 -1.05,-11.1 -0.9,-23.1 -3,-3.3 -7.95,-5.55 -4.95,-2.25 -10.8,-3.45 -5.85,-1.2 -11.55,-1.2 -3.75,0 -7.05,0.45 -3.3,0.45 -6.15,1.65 -11.4,4.2 -18.15,14.1 -6.6,9.75 -6.6,22.35 0,11.1 5.25,19.05 5.4,7.95 14.4,12.3 9,4.2 19.95,4.2 z m 148.65007,7.65 q -1.95,0 -3.45,-1.35 -1.35,-1.2 -1.35,-3.15 0,-0.6 0.3,-1.5 2.55,-7.95 4.05,-16.65 1.65,-8.85 1.65,-16.95 0,-16.05 -6.75,-25.5 -6.6,-9.6 -21,-10.65 -10.8,-0.45 -18.6,5.4 -7.8,5.85 -13.05,15.45 -4.65,8.85 -7.05,20.1 -2.25,11.25 -2.25,21.9 0,1.5 0,3 0,1.65 0.15,3.15 0,2.7 -1.65,3.75 -1.5,1.2 -3.15,1.2 -3.75,0 -4.2,-4.35 -1.05,-9.45 -1.95,-21 -0.75,-11.7 -1.35,-23.4 -0.45,-11.85 -0.45,-21.75 0,-2.85 0,-5.4 0,-2.55 0.15,-4.8 0,-2.55 1.5,-3.6 1.65,-1.05 3.15,-0.75 1.8,0 3,1.2 1.35,1.2 1.35,3.3 0.15,5.85 0.15,10.2 0,4.35 0,9 0.15,4.65 0.15,11.85 3.15,-10.2 9.3,-18 6.3,-7.8 14.7,-12.15 8.4,-4.5 18,-4.5 12.45,0 21.15,5.55 8.85,5.55 13.5,15.6 4.65,9.9 4.65,22.95 0,10.05 -1.8,19.5 -1.8,9.45 -4.8,19.2 -0.45,1.65 -1.65,2.4 -1.05,0.75 -2.4,0.75 z m 79.94987,1.05 q -1.2,0.15 -2.55,0.15 -1.2,0 -2.4,0 -13.35,0 -23.85,-5.7 -10.5,-5.55 -16.5,-15.45 -6,-9.9 -6,-22.65 0,-12 4.65,-22.05 4.8,-10.2 13.5,-16.95 8.7,-6.75 20.55,-8.55 1.65,-0.3 3.6,-0.45 1.95,-0.15 3.9,-0.15 8.1,0 16.8,2.25 8.85,2.1 14.85,6 0.75,-1.65 2.4,-1.95 1.65,-0.45 2.7,-0.15 1.65,0.15 2.55,1.5 0.9,1.35 0.9,3.15 -0.15,3.45 -0.3,6.75 0,3.3 0,6.6 0,16.8 2.4,29.85 2.55,13.05 9.45,22.8 0.9,1.35 0.9,2.7 0,1.8 -1.5,3 -1.35,1.2 -3,1.2 -2.25,0 -3.75,-1.95 -1.5,-2.1 -3,-4.65 -1.35,-2.55 -2.25,-4.5 -6.15,8.55 -15,13.2 -8.85,4.8 -19.05,6 z m -3,-8.7 q 10.2,0 18.75,-5.7 8.7,-5.7 14.1,-15.6 -2.25,-8.4 -3.3,-19.5 -1.05,-11.1 -0.9,-23.1 -3,-3.3 -7.95,-5.55 -4.95,-2.25 -10.8,-3.45 -5.85,-1.2 -11.55,-1.2 -3.75,0 -7.05,0.45 -3.3,0.45 -6.15,1.65 -11.4,4.2 -18.15,14.1 -6.6,9.75 -6.6,22.35 0,11.1 5.25,19.05 5.4,7.95 14.4,12.3 9,4.2 19.95,4.2 z m 195.60016,9.15 q -2.4,-0.3 -3.45,-1.8 -0.9,-1.5 -0.75,-3 0,-1.8 1.2,-3 1.2,-1.2 3.45,-1.2 2.25,0.15 4.5,0.15 2.25,0.15 4.5,0.15 9,0 15.9,-1.35 7.05,-1.35 11.1,-4.8 4.05,-3.45 4.05,-9.75 0,-4.2 -2.25,-6 -2.1,-1.95 -5.7,-2.4 -3.45,-0.6 -7.65,-0.6 -5.55,0 -11.4,0.6 -5.7,0.45 -11.85,0.45 -12.6,0 -22.8,-4.35 -10.05,-4.35 -16.05,-12.6 -5.85,-8.4 -5.85,-20.25 0,-10.35 4.2,-19.35 4.2,-9.15 11.55,-15.9 7.35,-6.75 16.95,-10.5 9.6,-3.9 20.4,-3.9 11.85,0 24,4.35 12.15,4.35 23.4,12.6 1.05,0.75 1.35,1.8 0.45,1.05 0.45,2.1 0,1.5 -0.75,2.7 -1.5,2.25 -3.75,2.25 -1.2,0 -2.4,-0.9 -10.05,-7.05 -21,-11.1 -10.95,-4.05 -21.45,-4.05 -8.55,0 -16.35,3.3 -7.65,3.15 -13.65,8.7 -6,5.4 -9.45,12.6 -3.45,7.05 -3.45,14.85 0,9.9 4.95,16.35 4.95,6.3 13.5,9.3 8.7,3 19.5,3 6.6,0 12.75,-0.45 6.3,-0.45 10.8,-0.45 9.3,0 15.45,5.25 6.15,5.1 6.15,13.2 0,9 -5.7,14.25 -5.55,5.4 -15.15,7.65 -9.45,2.25 -21.45,2.25 -1.95,0 -3.9,0 -1.8,0 -3.9,-0.15 z M 845.09993,-45 q -9.6,0 -15.45,-6 -5.85,-6 -5.85,-14.7 0,-9.3 5.85,-15 5.85,-5.7 15.45,-5.7 6.3,0 11.1,2.85 4.8,2.7 7.35,7.35 2.7,4.65 2.7,10.5 0,5.85 -2.7,10.5 -2.7,4.65 -7.5,7.5 -4.8,2.7 -10.95,2.7 z m 0,-9 q 6,0 9.15,-3.3 3.15,-3.3 3.15,-8.4 0,-5.55 -3.3,-8.55 -3.3,-3.15 -9,-3.15 -6,0 -9.15,3.3 -3.15,3.15 -3.15,8.4 0,5.4 3.3,8.55 3.3,3.15 9,3.15 z m 0,64.2 q -2.4,0 -3.45,-1.35 -1.05,-1.2 -1.2,-2.85 -0.45,-11.1 -0.45,-22.8 0,-9.9 0.45,-18.45 0.15,-2.4 1.65,-3.3 1.65,-1.05 3.15,-0.75 1.8,0 3,1.35 1.2,1.35 1.2,3.45 -0.3,1.5 -0.45,6.45 -0.15,4.95 -0.15,10.95 0,4.8 0,9.6 0.15,4.65 0.3,8.1 0.15,3.45 0.3,4.65 0,2.55 -1.35,3.75 -1.35,1.2 -3,1.2 z M 978.45006,9.3 q -1.95,0 -3.6,-1.2 -1.5,-1.2 -1.5,-3.15 0,-0.6 0.3,-1.5 3,-9.75 4.65,-20.1 1.8,-10.35 1.8,-19.5 0,-8.25 -1.8,-14.7 -1.65,-6.45 -5.55,-10.2 -3.75,-3.9 -10.35,-3.9 -7.8,0 -12.15,5.25 -4.35,5.1 -6.45,14.25 -1.95,9.15 -3,21.15 0,2.25 -1.5,3.45 -1.5,1.05 -3.15,1.05 -1.95,-0.3 -3.15,-1.65 -1.2,-1.35 -1.2,-3.3 0.3,-2.1 0.45,-4.05 0.15,-2.1 0.15,-4.2 0,-8.55 -2.4,-16.2 -2.4,-7.8 -7.05,-12.6 -4.5,-4.95 -11.1,-4.65 -5.4,0 -9.3,3.15 -3.75,3 -6,7.95 -2.25,4.95 -3.3,10.95 0.15,6.75 0.75,15 0.75,8.25 1.8,16.5 1.05,8.25 2.25,15 0.45,2.25 -0.9,3.6 -1.2,1.35 -2.7,1.65 -1.95,0.15 -3.45,-0.75 -1.35,-0.75 -1.8,-2.85 -2.7,-15.6 -3.9,-29.25 -1.05,-13.8 -1.05,-29.25 0,-4.2 0,-8.55 0.15,-4.35 0.3,-9 0.3,-2.55 1.8,-3.45 1.5,-1.05 3,-0.75 1.8,0 3.15,1.35 1.35,1.2 1.05,3.3 l -0.15,4.65 q 4.05,-4.35 8.55,-6.15 4.65,-1.8 9.75,-1.8 10.35,0 16.5,5.4 6.3,5.4 9.3,14.1 3.45,-8.4 9.3,-13.2 6,-4.95 14.7,-4.95 10.05,0 16.2,5.4 6.15,5.4 8.85,14.4 2.85,9 2.85,19.95 0,9.6 -1.95,19.95 -1.8,10.35 -5.1,20.1 -1.2,3.3 -3.9,3.3 z m 80.25004,2.85 q -1.2,0.15 -2.55,0.15 -1.2,0 -2.4,0 -13.35,0 -23.85,-5.7 -10.5,-5.55 -16.5,-15.45 -6,-9.9 -6,-22.65 0,-12 4.65,-22.05 4.8,-10.2 13.5,-16.95 8.7,-6.75 20.55,-8.55 1.65,-0.3 3.6,-0.45 1.95,-0.15 3.9,-0.15 8.1,0 16.8,2.25 8.85,2.1 14.85,6 0.75,-1.65 2.4,-1.95 1.65,-0.45 2.7,-0.15 1.65,0.15 2.55,1.5 0.9,1.35 0.9,3.15 -0.15,3.45 -0.3,6.75 0,3.3 0,6.6 0,16.8 2.4,29.85 2.55,13.05 9.45,22.8 0.9,1.35 0.9,2.7 0,1.8 -1.5,3 -1.35,1.2 -3,1.2 -2.25,0 -3.75,-1.95 -1.5,-2.1 -3,-4.65 -1.35,-2.55 -2.25,-4.5 -6.15,8.55 -15,13.2 -8.85,4.8 -19.05,6 z m -3,-8.7 q 10.2,0 18.75,-5.7 8.7,-5.7 14.1,-15.6 -2.25,-8.4 -3.3,-19.5 -1.05,-11.1 -0.9,-23.1 -3,-3.3 -7.95,-5.55 -4.95,-2.25 -10.8,-3.45 -5.85,-1.2 -11.55,-1.2 -3.75,0 -7.05,0.45 -3.3,0.45 -6.15,1.65 -11.4,4.2 -18.15,14.1 -6.6,9.75 -6.6,22.35 0,11.1 5.25,19.05 5.4,7.95 14.4,12.3 9,4.2 19.95,4.2 z m 162.75,5.85 q -1.95,0 -3.6,-1.2 -1.5,-1.2 -1.5,-3.15 0,-0.6 0.3,-1.5 3,-9.75 4.65,-20.1 1.8,-10.35 1.8,-19.5 0,-8.25 -1.8,-14.7 -1.65,-6.45 -5.55,-10.2 -3.75,-3.9 -10.35,-3.9 -7.8,0 -12.15,5.25 -4.35,5.1 -6.45,14.25 -1.95,9.15 -3,21.15 0,2.25 -1.5,3.45 -1.5,1.05 -3.15,1.05 -1.95,-0.3 -3.15,-1.65 -1.2,-1.35 -1.2,-3.3 0.3,-2.1 0.45,-4.05 0.15,-2.1 0.15,-4.2 0,-8.55 -2.4,-16.2 -2.4,-7.8 -7.05,-12.6 -4.5,-4.95 -11.1,-4.65 -5.4,0 -9.3,3.15 -3.75,3 -6,7.95 -2.25,4.95 -3.3,10.95 0.15,6.75 0.75,15 0.75,8.25 1.8,16.5 1.05,8.25 2.25,15 0.45,2.25 -0.9,3.6 -1.2,1.35 -2.7,1.65 -1.95,0.15 -3.45,-0.75 -1.35,-0.75 -1.8,-2.85 -2.7,-15.6 -3.9,-29.25 -1.05,-13.8 -1.05,-29.25 0,-4.2 0,-8.55 0.15,-4.35 0.3,-9 0.3,-2.55 1.8,-3.45 1.5,-1.05 3,-0.75 1.8,0 3.15,1.35 1.35,1.2 1.05,3.3 l -0.15,4.65 q 4.05,-4.35 8.55,-6.15 4.65,-1.8 9.75,-1.8 10.35,0 16.5,5.4 6.3,5.4 9.3,14.1 3.45,-8.4 9.3,-13.2 6,-4.95 14.7,-4.95 10.05,0 16.2,5.4 6.15,5.4 8.85,14.4 2.85,9 2.85,19.95 0,9.6 -1.95,19.95 -1.8,10.35 -5.1,20.1 -1.2,3.3 -3.9,3.3 z m 80.25,2.85 q -1.2,0.15 -2.55,0.15 -1.2,0 -2.4,0 -13.35,0 -23.85,-5.7 -10.5,-5.55 -16.5,-15.45 -6,-9.9 -6,-22.65 0,-12 4.65,-22.05 4.8,-10.2 13.5,-16.95 8.7,-6.75 20.55,-8.55 1.65,-0.3 3.6,-0.45 1.95,-0.15 3.9,-0.15 8.1,0 16.8,2.25 8.85,2.1 14.85,6 0.75,-1.65 2.4,-1.95 1.65,-0.45 2.7,-0.15 1.65,0.15 2.55,1.5 0.9,1.35 0.9,3.15 -0.15,3.45 -0.3,6.75 0,3.3 0,6.6 0,16.8 2.4,29.85 2.55,13.05 9.45,22.8 0.9,1.35 0.9,2.7 0,1.8 -1.5,3 -1.35,1.2 -3,1.2 -2.25,0 -3.75,-1.95 -1.5,-2.1 -3,-4.65 -1.35,-2.55 -2.25,-4.5 -6.15,8.55 -15,13.2 -8.85,4.8 -19.05,6 z m -3,-8.7 q 10.2,0 18.75,-5.7 8.7,-5.7 14.1,-15.6 -2.25,-8.4 -3.3,-19.5 -1.05,-11.1 -0.9,-23.1 -3,-3.3 -7.95,-5.55 -4.95,-2.25 -10.8,-3.45 -5.85,-1.2 -11.55,-1.2 -3.75,0 -7.05,0.45 -3.3,0.45 -6.15,1.65 -11.4,4.2 -18.15,14.1 -6.6,9.75 -6.6,22.35 0,11.1 5.25,19.05 5.4,7.95 14.4,12.3 9,4.2 19.95,4.2 z"
         id="text9"
         style="font-size:150px;font-family:naMbprOZwWyC4i;fill:#141414"
         transform="scale(0.59925094)"
         aria-label="KIjana Simama" />
    </g>
    <g
       transform="translate(-1.8807260155574763, 637.2929991356958) rotate(0)"
       id="g11">
      <path
         d="m 71.25,9.45 q -3.6,1.05 -7.2,1.5 -3.6,0.6 -7.35,0.6 -9.75,0 -18.9,-3.45 Q 28.8,4.65 21.6,-1.65 14.4,-7.95 10.2,-16.5 6,-25.05 6,-35.25 q 0,-14.25 6.3,-25.2 6.45,-11.1 17.4,-17.4 11.1,-6.3 24.9,-6.3 8.7,0 16.65,3.45 8.1,3.3 14.4,9.3 6.3,6 9.9,13.95 3.75,7.95 3.75,16.95 0,7.5 -4.65,11.4 -4.65,3.75 -12.45,5.1 -7.8,1.35 -17.1,1.35 -6.3,0 -14.1,-0.45 -7.65,-0.45 -15.15,-1.2 -7.35,-0.9 -12.75,-1.65 -2.1,-0.3 -3,-1.5 -0.9,-1.35 -0.9,-2.85 0,-2.1 1.35,-3.45 1.5,-1.5 3.9,-1.2 2.7,0.6 8.4,1.35 5.7,0.6 12.45,1.2 6.9,0.45 13.05,0.75 6.3,0.3 10.2,0.3 11.1,-0.3 16.65,-2.7 5.7,-2.55 5.7,-8.25 0,-6.15 -3.15,-12 -3.15,-5.85 -8.55,-10.5 -5.25,-4.8 -11.7,-7.5 -6.3,-2.85 -12.9,-2.85 -8.4,-0.3 -15.75,3 -7.35,3.15 -12.9,8.85 -5.4,5.55 -8.55,13.05 -3,7.35 -3,15.45 0,7.8 3.75,14.7 3.75,6.75 10.05,11.85 6.3,5.1 13.95,7.95 7.65,2.85 15.45,2.85 5.25,0 10.65,-1.65 0.45,-0.15 1.35,-0.15 1.8,0 3.15,1.2 1.5,1.35 1.5,3.45 0,1.2 -0.75,2.4 Q 72.9,9 71.25,9.45 Z M 211.49995,9.3 q -1.95,0 -3.6,-1.2 -1.5,-1.2 -1.5,-3.15 0,-0.6 0.3,-1.5 3,-9.75 4.65,-20.1 1.8,-10.35 1.8,-19.5 0,-8.25 -1.8,-14.7 -1.65,-6.45 -5.55,-10.2 -3.75,-3.9 -10.35,-3.9 -7.8,0 -12.15,5.25 -4.35,5.1 -6.45,14.25 -1.95,9.15 -3,21.15 0,2.25 -1.5,3.45 -1.5,1.05 -3.15,1.05 -1.95,-0.3 -3.15,-1.65 -1.2,-1.35 -1.2,-3.3 0.3,-2.1 0.45,-4.05 0.15,-2.1 0.15,-4.2 0,-8.55 -2.4,-16.2 -2.4,-7.8 -7.05,-12.6 -4.5,-4.95 -11.1,-4.65 -5.4,0 -9.3,3.15 -3.75,3 -6,7.95 -2.25,4.95 -3.3,10.95 0.15,6.75 0.75,15 0.75,8.25 1.8,16.5 1.05,8.25 2.25,15 0.45,2.25 -0.9,3.6 -1.2,1.35 -2.7,1.65 -1.95,0.15 -3.45,-0.75 -1.35,-0.75 -1.8,-2.85 -2.7,-15.6 -3.9,-29.25 -1.05,-13.8 -1.05,-29.25 0,-4.2 0,-8.55 0.15,-4.35 0.3,-9 0.3,-2.55 1.8,-3.45 1.5,-1.05 3,-0.75 1.8,0 3.15,1.35 1.35,1.2 1.05,3.3 l -0.15,4.65 q 4.05,-4.35 8.55,-6.15 4.65,-1.8 9.75,-1.8 10.35,0 16.5,5.4 6.3,5.4 9.3,14.1 3.45,-8.4 9.3,-13.2 6,-4.95 14.7,-4.95 10.05,0 16.2,5.4 6.15,5.4 8.85,14.4 2.85,9 2.85,19.95 0,9.6 -1.95,19.95 -1.8,10.35 -5.1,20.1 -1.2,3.3 -3.9,3.3 z m 42.15,18.9 q -1.5,0 -2.85,-1.05 -1.35,-1.05 -1.35,-3 -1.2,-17.25 -2.1,-32.85 -0.9,-15.75 -0.9,-30 0,-9.3 0.45,-18 0.45,-8.85 1.5,-17.1 0.3,-2.4 1.8,-3.3 1.65,-0.9 3.15,-0.6 1.95,0.15 3,1.5 1.2,1.35 0.9,3.45 -0.9,6.9 -1.35,18.15 -0.45,11.25 -0.45,22.8 0,8.1 0.15,15.45 0.3,7.35 0.9,12.3 7.2,2.4 14.4,3.9 7.2,1.5 14.1,1.5 11.25,0 20.25,-4.2 9.15,-4.35 14.4,-12.3 5.25,-8.1 5.25,-19.2 0,-10.65 -4.8,-18.6 -4.8,-7.95 -13.05,-12.3 -8.1,-4.5 -18.3,-4.5 -6,0 -12.15,1.65 -6.15,1.5 -11.55,4.05 -1.05,0.6 -2.4,0.6 -2.55,0 -3.6,-2.4 -0.6,-1.05 -0.6,-2.25 0,-2.25 2.4,-3.9 5.7,-3.15 13.2,-4.65 7.5,-1.65 15.15,-1.65 13.35,0 23.55,5.85 10.2,5.7 15.9,15.6 5.85,9.9 5.85,22.5 0,13.8 -6.9,23.85 -6.9,10.05 -18.75,15.45 -11.7,5.4 -26.25,5.4 -13.2,0 -25.5,-4.8 l 1.2,17.85 q 0.3,2.55 -1.35,3.6 -1.65,1.2 -3.3,1.2 z M 394.35006,13.05 q -14.55,0 -25.35,-6 -10.65,-6 -16.65,-16.5 -5.85,-10.65 -5.85,-24.6 0,-14.4 5.85,-24.9 5.85,-10.65 16.5,-16.5 10.8,-5.85 25.5,-5.85 15,0 25.65,5.85 10.8,5.7 16.5,16.35 5.7,10.5 5.7,25.05 0,14.25 -5.85,24.9 -5.85,10.65 -16.65,16.35 -10.65,5.85 -25.35,5.85 z m 0,-9.45 q 18.45,0 28.35,-10.05 10.05,-10.05 10.05,-27.6 0,-18.3 -10.35,-28.05 -10.35,-9.75 -28.05,-9.75 -17.7,0 -28.05,10.05 -10.35,10.05 -10.35,27.75 0,11.7 4.95,20.1 4.95,8.4 13.65,13.05 8.7,4.5 19.8,4.5 z m 97.35007,8.55 q -8.85,0 -14.85,-5.25 -6,-5.25 -9.75,-14.1 -3.6,-9 -5.25,-19.95 -1.65,-10.95 -1.65,-22.35 0,-6.15 0.45,-12.3 0.45,-6.15 1.2,-11.85 0.3,-2.1 1.5,-2.85 1.35,-0.9 2.85,-0.9 2.4,0 3.6,1.5 1.35,1.35 0.9,3.45 -0.9,5.1 -1.35,11.1 -0.45,6 -0.45,12.3 0,9.3 1.2,18.6 1.2,9.3 3.75,16.95 2.7,7.5 6.9,12.15 4.35,4.5 10.65,4.5 5.4,0 9.3,-4.2 3.9,-4.35 6.3,-10.95 2.55,-6.75 3.6,-13.95 1.05,-7.2 0.75,-13.05 0,-2.55 1.35,-3.6 1.5,-1.2 3,-1.2 2.1,-0.3 3.3,1.05 1.35,1.35 1.35,3.45 -0.15,6.3 0.9,13.5 1.05,7.05 3.45,13.5 2.4,6.45 6.45,10.5 4.05,4.05 9.6,4.05 6.3,0 10.5,-3.6 4.2,-3.6 6.6,-9.75 2.4,-6.15 3.3,-14.1 1.05,-7.95 1.05,-16.5 0,-7.5 -0.6,-15.15 -0.6,-7.65 -1.35,-14.55 -0.45,-4.95 4.65,-4.95 2.1,0 3,1.05 0.9,1.05 1.2,2.7 1.05,6.75 1.5,13.95 0.6,7.2 0.6,14.4 0,10.8 -1.5,20.85 -1.5,9.9 -4.95,17.85 -3.45,7.95 -9.15,12.6 -5.7,4.65 -14.1,4.65 -6.15,0 -11.1,-3 -4.8,-3 -8.4,-7.95 -3.45,-4.8 -5.55,-10.35 -1.8,5.4 -5.55,10.35 -3.75,5.1 -8.7,8.25 -4.8,3.15 -10.5,3.15 z m 162.74994,-2.7 q -3.6,1.05 -7.2,1.5 -3.6,0.6 -7.35,0.6 -9.75,0 -18.9,-3.45 -9,-3.45 -16.2,-9.75 -7.2,-6.3 -11.4,-14.85 -4.2,-8.55 -4.2,-18.75 0,-14.25 6.3,-25.2 6.45,-11.1 17.4,-17.4 11.1,-6.3 24.9,-6.3 8.7,0 16.65,3.45 8.1,3.3 14.4,9.3 6.3,6 9.9,13.95 3.75,7.95 3.75,16.95 0,7.5 -4.65,11.4 -4.65,3.75 -12.45,5.1 -7.8,1.35 -17.1,1.35 -6.3,0 -14.1,-0.45 -7.65,-0.45 -15.15,-1.2 -7.35,-0.9 -12.75,-1.65 -2.1,-0.3 -3,-1.5 -0.9,-1.35 -0.9,-2.85 0,-2.1 1.35,-3.45 1.5,-1.5 3.9,-1.2 2.7,0.6 8.4,1.35 5.7,0.6 12.45,1.2 6.9,0.45 13.05,0.75 6.3,0.3 10.2,0.3 11.1,-0.3 16.65,-2.7 5.7,-2.55 5.7,-8.25 0,-6.15 -3.15,-12 -3.15,-5.85 -8.55,-10.5 -5.25,-4.8 -11.7,-7.5 -6.3,-2.85 -12.9,-2.85 -8.4,-0.3 -15.75,3 -7.35,3.15 -12.9,8.85 -5.4,5.55 -8.55,13.05 -3,7.35 -3,15.45 0,7.8 3.75,14.7 3.75,6.75 10.05,11.85 6.3,5.1 13.95,7.95 7.65,2.85 15.45,2.85 5.25,0 10.65,-1.65 0.45,-0.15 1.35,-0.15 1.8,0 3.15,1.2 1.5,1.35 1.5,3.45 0,1.2 -0.75,2.4 -0.6,1.2 -2.25,1.65 z M 716.1,10.2 q -1.95,0 -3.3,-1.35 -1.2,-1.2 -1.2,-3.15 -0.45,-8.25 -1.5,-17.85 -0.9,-9.6 -2.4,-19.5 -1.35,-10.05 -3.15,-19.05 -1.8,-9.15 -3.75,-16.2 -0.3,-1.2 -0.3,-1.65 0,-1.95 1.35,-3 1.5,-1.05 3.15,-1.05 1.5,0 2.7,0.9 1.35,0.75 1.8,2.25 1.65,5.25 3.15,12.45 1.5,7.2 2.7,14.55 1.2,7.2 1.8,12.75 2.85,-11.85 9.6,-20.4 6.9,-8.7 16.65,-13.35 9.9,-4.65 21.45,-4.65 9.45,0 19.05,3.45 3,1.35 3,4.05 0,4.5 -4.35,4.5 -1.05,0 -1.65,-0.15 -7.2,-2.4 -15.75,-2.4 -12.3,0 -20.7,4.95 -8.4,4.95 -13.65,13.8 -5.1,8.85 -7.5,20.4 -2.4,11.55 -2.7,24.9 0,2.4 -1.5,3.6 -1.35,1.2 -3,1.2 z M 818.70015,-45 q -9.6,0 -15.45,-6 -5.85,-6 -5.85,-14.7 0,-9.3 5.85,-15 5.85,-5.7 15.45,-5.7 6.3,0 11.1,2.85 4.8,2.7 7.35,7.35 2.7,4.65 2.7,10.5 0,5.85 -2.7,10.5 -2.7,4.65 -7.5,7.5 -4.8,2.7 -10.95,2.7 z m 0,-9 q 6,0 9.15,-3.3 3.15,-3.3 3.15,-8.4 0,-5.55 -3.3,-8.55 -3.3,-3.15 -9,-3.15 -6,0 -9.15,3.3 -3.15,3.15 -3.15,8.4 0,5.4 3.3,8.55 3.3,3.15 9,3.15 z m 0,64.2 q -2.4,0 -3.45,-1.35 -1.05,-1.2 -1.2,-2.85 -0.45,-11.1 -0.45,-22.8 0,-9.9 0.45,-18.45 0.15,-2.4 1.65,-3.3 1.65,-1.05 3.15,-0.75 1.8,0 3,1.35 1.2,1.35 1.2,3.45 -0.3,1.5 -0.45,6.45 -0.15,4.95 -0.15,10.95 0,4.8 0,9.6 0.15,4.65 0.3,8.1 0.15,3.45 0.3,4.65 0,2.55 -1.35,3.75 -1.35,1.2 -3,1.2 z m 119.25013,0.9 q -1.95,0 -3.45,-1.35 -1.35,-1.2 -1.35,-3.15 0,-0.6 0.3,-1.5 2.55,-7.95 4.05,-16.65 1.65,-8.85 1.65,-16.95 0,-16.05 -6.75,-25.5 -6.6,-9.6 -21,-10.65 -10.8,-0.45 -18.6,5.4 -7.8,5.85 -13.05,15.45 -4.65,8.85 -7.05,20.1 -2.25,11.25 -2.25,21.9 0,1.5 0,3 0,1.65 0.15,3.15 0,2.7 -1.65,3.75 -1.5,1.2 -3.15,1.2 -3.75,0 -4.2,-4.35 -1.05,-9.45 -1.95,-21 -0.75,-11.7 -1.35,-23.4 -0.45,-11.85 -0.45,-21.75 0,-2.85 0,-5.4 0,-2.55 0.15,-4.8 0,-2.55 1.5,-3.6 1.65,-1.05 3.15,-0.75 1.8,0 3,1.2 1.35,1.2 1.35,3.3 0.15,5.85 0.15,10.2 0,4.35 0,9 0.15,4.65 0.15,11.85 3.15,-10.2 9.3,-18 6.3,-7.8 14.7,-12.15 8.4,-4.5 18,-4.5 12.45,0 21.15,5.55 8.85,5.55 13.5,15.6 4.65,9.9 4.65,22.95 0,10.05 -1.8,19.5 -1.8,9.45 -4.8,19.2 -0.45,1.65 -1.65,2.4 -1.05,0.75 -2.4,0.75 z m 86.24992,18 q -6.45,0 -10.95,-4.35 -4.5,-4.35 -4.2,-10.95 0.9,-6.45 5.7,-10.35 4.95,-3.9 11.85,-6 6.9,-2.25 13.65,-3.45 0.45,-4.5 0.6,-5.85 0.3,-1.5 0.45,-2.25 -7.2,5.85 -16.5,9.15 -9.3,3.3 -18.6,3.3 -8.85004,0 -16.50004,-3.15 -11.25,-4.8 -17.25,-14.7 -5.85,-10.05 -5.85,-21.45 0,-12.3 5.85,-21.75 6,-9.45 16.2,-14.85 10.2,-5.4 22.80004,-5.4 9,0 16.95,3 7.95,3 13.8,9.15 2.55,0 3.45,1.05 1.05,1.05 1.35,2.7 1.65,7.5 2.55,18.45 1.05,10.95 1.05,21.6 0,5.85 -0.3,11.1 -0.3,5.25 -1.05,9.3 7.2,0 6.45,4.95 0,1.65 -1.35,2.85 -1.2,1.2 -3.45,1.2 -0.3,-0.15 -0.9,-0.15 -0.6,0 -2.4,0 -1.65,7.35 -4.5,13.35 -2.85,6.15 -7.5,9.75 -4.5,3.75 -11.4,3.75 z m -28.05004,-41.25 q 4.65004,1.5 10.20004,1.5 9.9,0 19.65,-4.65 9.75,-4.65 15.9,-12.45 0,-2.4 -0.3,-6.9 -0.3,-4.5 -0.9,-9.6 -0.45,-5.25 -1.05,-9.45 -0.45,-4.35 -0.75,-6.3 -2.55,-4.65 -7.5,-7.8 -4.95,-3.15 -10.95,-4.65 -5.85,-1.65 -11.55,-1.65 -10.05004,0.3 -17.40004,4.8 -7.35,4.35 -11.4,11.85 -3.9,7.35 -3.9,16.95 0,10.05 5.1,17.7 5.25,7.65 14.85,10.65 z m 28.35004,32.55 q 3.75,0 6.3,-2.7 2.7,-2.7 4.5,-6.6 1.8,-3.9 2.85,-7.65 -4.2,0.9 -8.85,2.4 -4.65,1.5 -7.95,3.6 -3.15,2.25 -3.15,5.55 0,2.25 1.8,3.75 1.95,1.65 4.5,1.65 z m 148.8,9 q -0.9,0.45 -1.95,0.45 -1.65,0 -2.85,-1.5 -1.2,-1.5 -1.2,-3 0,-3.15 3.3,-4.5 10.35,-4.65 19.5,-11.1 9.3,-6.45 16.8,-14.7 -13.2,-3.75 -22.8,-12.75 -9.6,-9 -16.35,-21.6 -6.6,-12.6 -11.4,-27 -0.6,-1.65 0.45,-3.3 1.05,-1.65 2.85,-2.25 0.9,-0.3 1.35,-0.3 1.35,0 2.55,0.9 1.35,0.75 1.95,2.4 4.05,13.05 10.05,24.45 6,11.4 14.4,19.5 8.55,8.1 19.8,11.4 1.8,0.45 2.85,1.8 9.75,-12.6 15.3,-26.85 5.7,-14.25 7.65,-30.15 0.3,-2.1 1.65,-3 1.5,-1.05 3,-1.05 2.25,0 3.45,1.5 1.35,1.35 1.35,3.6 -1.95,14.7 -7.5,29.25 -5.4,14.55 -13.8,26.55 -9.6,13.95 -22.35,24.3 -12.6,10.5 -28.05,16.95 z m 130.05,-16.35 q -14.55,0 -25.35,-6 -10.65,-6 -16.65,-16.5 -5.85,-10.65 -5.85,-24.6 0,-14.4 5.85,-24.9 5.85,-10.65 16.5,-16.5 10.8,-5.85 25.5,-5.85 15,0 25.65,5.85 10.8,5.7 16.5,16.35 5.7,10.5 5.7,25.05 0,14.25 -5.85,24.9 -5.85,10.65 -16.65,16.35 -10.65,5.85 -25.35,5.85 z m 0,-9.45 q 18.45,0 28.35,-10.05 10.05,-10.05 10.05,-27.6 0,-18.3 -10.35,-28.05 -10.35,-9.75 -28.05,-9.75 -17.7,0 -28.05,10.05 -10.35,10.05 -10.35,27.75 0,11.7 4.95,20.1 4.95,8.4 13.65,13.05 8.7,4.5 19.8,4.5 z m 150.3001,6.6 q -1.2,0 -2.4,-0.75 -1.2,-0.6 -1.8,-2.1 -2.4,-5.55 -3.75,-12.15 -1.35,-6.6 -2.1,-12.6 -3.3,7.5 -8.85,13.65 -5.55,6 -12.6,9.6 -7.05,3.6 -15.15,4.05 -15.3,0.75 -25.05,-4.95 -9.6,-5.55 -14.25,-15.75 -4.5,-10.35 -4.5,-23.25 0,-9.3 2.1,-19.2 2.1,-10.05 6,-20.1 1.05,-2.85 4.05,-2.85 2.1,0 3.45,1.2 1.35,1.2 1.35,3 0,0.75 -0.45,1.95 -3.75,9.6 -5.85,18.9 -1.95,9.3 -1.95,17.7 0,10.05 3.3,18 3.3,7.95 10.35,12.45 7.05,4.35 18.3,3.9 11.1,-0.45 19.65,-7.35 8.7,-6.9 13.65,-18.9 4.95,-12.15 4.95,-27.6 0,-2.7 -0.3,-5.55 -0.15,-2.85 -0.45,-5.7 -0.3,-2.55 1.2,-3.45 1.65,-0.9 3.3,-0.9 2.1,0.15 3.45,1.5 1.5,1.2 1.5,3.3 0,6 0.3,13.65 0.45,7.65 1.05,15.9 0.75,8.25 1.65,15.9 0.9,7.65 2.1,13.65 1.2,5.85 2.7,8.85 0.3,0.45 0.3,0.9 0,0.45 0,0.9 0,1.95 -1.65,3 -1.65,1.2 -3.6,1.2 z m 68.2501,0.6 q -12.45,-2.25 -20.7,-10.8 -8.25,-8.55 -10.95,-21.3 -0.75,-3.6 -1.2,-7.35 -0.3,-3.9 -0.3,-7.8 0,-6.45 0.75,-12.9 0.9,-6.6 2.1,-12.6 h -17.7 q -2.4,0 -3.45,-1.35 -1.05,-1.5 -1.05,-3.15 0,-1.95 1.2,-3.15 1.35,-1.35 3.3,-1.35 h 19.95 q 0.6,-2.4 1.95,-6.75 1.35,-4.35 2.85,-8.7 1.5,-4.35 2.4,-6.75 1.2,-2.7 4.05,-2.7 2.25,0 3.45,1.35 1.35,1.35 1.35,3 0,0.9 -0.45,1.8 -0.9,2.55 -2.25,6.15 -1.2,3.6 -2.4,7.05 -1.05,3.3 -1.65,5.55 h 41.4 q 2.4,0 3.45,1.5 1.05,1.5 1.05,3 0,1.65 -1.2,3.15 -1.05,1.35 -3.3,1.35 h -43.65 q -1.35,6 -2.25,12.75 -0.75,6.75 -0.75,12.9 0,2.7 0.15,5.25 0.15,2.55 0.6,4.8 2.1,11.25 8.4,19.05 6.3,7.65 17.4,9.45 1.5,0.15 3.15,0.15 1.65,0.15 3.15,0.15 4.65,0 9.3,-0.6 4.65,-0.6 7.95,-1.95 0.6,-0.15 1.05,-0.15 0.45,-0.15 0.9,-0.15 4.05,0 4.05,4.95 0,2.4 -3.15,3.9 -8.7,3.15 -19.5,3.15 -5.1,0 -9.45,-0.9 z m 56.4001,1.65 q -4.2,0 -5.1,-4.05 -1.5,-7.05 -2.1,-17.7 -0.6,-10.65 -0.6,-22.8 0,-10.95 0.45,-22.05 0.45,-11.25 1.2,-21.3 0.9,-10.05 1.95,-17.4 0.3,-2.4 1.8,-3.3 1.65,-0.9 3.15,-0.6 1.95,0.15 3.15,1.5 1.2,1.35 0.9,3.45 -0.6,5.1 -1.2,12.15 -0.6,6.9 -1.2,14.55 -0.45,7.5 -0.75,14.4 -0.3,6.9 -0.3,11.85 4.95,-10.5 13.95,-16.95 9.15,-6.45 20.25,-6.45 14.4,0.15 24,6.3 9.75,6 14.55,16.8 4.8,10.65 4.8,24.75 0,11.85 -3,23.1 -1.05,3.45 -4.2,3.45 -2.1,0 -3.6,-1.65 -1.5,-1.5 -0.9,-3.9 2.55,-9.75 2.55,-19.65 0,-17.4 -8.25,-28.05 -8.1,-10.8 -24.75,-11.1 -9.15,0 -15.75,4.95 -6.45,4.95 -10.5,12.9 -3.75,7.5 -5.55,15 -1.8,7.5 -1.8,15.6 0,2.55 0.15,5.25 0.3,2.85 0.6,5.7 0.3,2.4 -1.05,3.6 -1.35,1.35 -2.85,1.65 z m 231.9001,-1.65 q -12.45,-2.25 -20.7,-10.8 -8.25,-8.55 -10.95,-21.3 -0.75,-3.6 -1.2,-7.35 -0.3,-3.9 -0.3,-7.8 0,-6.45 0.75,-12.9 0.9,-6.6 2.1,-12.6 h -17.7 q -2.4,0 -3.45,-1.35 -1.05,-1.5 -1.05,-3.15 0,-1.95 1.2,-3.15 1.35,-1.35 3.3,-1.35 h 19.95 q 0.6,-2.4 1.95,-6.75 1.35,-4.35 2.85,-8.7 1.5,-4.35 2.4,-6.75 1.2,-2.7 4.05,-2.7 2.25,0 3.45,1.35 1.35,1.35 1.35,3 0,0.9 -0.45,1.8 -0.9,2.55 -2.25,6.15 -1.2,3.6 -2.4,7.05 -1.05,3.3 -1.65,5.55 h 41.4 q 2.4,0 3.45,1.5 1.05,1.5 1.05,3 0,1.65 -1.2,3.15 -1.05,1.35 -3.3,1.35 h -43.65 q -1.35,6 -2.25,12.75 -0.75,6.75 -0.75,12.9 0,2.7 0.15,5.25 0.15,2.55 0.6,4.8 2.1,11.25 8.4,19.05 6.3,7.65 17.4,9.45 1.5,0.15 3.15,0.15 1.65,0.15 3.15,0.15 4.65,0 9.3,-0.6 4.65,-0.6 7.95,-1.95 0.6,-0.15 1.05,-0.15 0.45,-0.15 0.9,-0.15 4.05,0 4.05,4.95 0,2.4 -3.15,3.9 -8.7,3.15 -19.5,3.15 -5.1,0 -9.45,-0.9 z m 90.4501,2.25 q -14.55,0 -25.35,-6 -10.65,-6 -16.65,-16.5 -5.85,-10.65 -5.85,-24.6 0,-14.4 5.85,-24.9 5.85,-10.65 16.5,-16.5 10.8,-5.85 25.5,-5.85 15,0 25.65,5.85 10.8,5.7 16.5,16.35 5.7,10.5 5.7,25.05 0,14.25 -5.85,24.9 -5.85,10.65 -16.65,16.35 -10.65,5.85 -25.35,5.85 z m 0,-9.45 q 18.45,0 28.35,-10.05 10.05,-10.05 10.05,-27.6 0,-18.3 -10.35,-28.05 -10.35,-9.75 -28.05,-9.75 -17.7,0 -28.05,10.05 -10.35,10.05 -10.35,27.75 0,11.7 4.95,20.1 4.95,8.4 13.65,13.05 8.7,4.5 19.8,4.5 z m 199.5,9.3 q -5.55,0 -11.4,-1.05 -5.85,-1.05 -11.7,-2.7 -3,-0.9 -3,-3.75 0,-4.65 3.9,-4.65 0.9,0 1.5,0.15 7.35,1.95 11.7,2.85 4.5,1.05 8.25,1.05 4.65,0 8.85,-1.5 4.2,-1.35 6.9,-3.75 2.85,-2.55 2.85,-5.85 0,-3.45 -3.3,-5.25 -3.3,-1.95 -8.85,-3 -5.55,-1.2 -12.6,-1.95 -6.9,-0.9 -14.25,-1.95 -14.55,-2.55 -22.35,-9.3 -7.65,-6.9 -7.65,-21 0,-8.85 3.9,-15.75 4.05,-6.9 10.8,-11.55 6.75,-4.8 15.3,-7.2 8.7,-2.55 18,-2.55 8.25,0 16.2,2.1 7.95,2.1 14.25,6.45 2.1,1.5 2.1,3.3 0,1.35 -0.9,2.7 -0.75,1.05 -1.8,1.5 -0.9,0.3 -1.8,0.3 -1.2,0 -2.4,-0.75 -5.1,-3.45 -11.7,-4.8 -6.6,-1.5 -13.5,-1.5 -10.8,0 -19.95,3.15 -9.15,3.15 -14.7,9.45 -5.4,6.15 -5.4,15.15 0,10.2 5.7,15.15 5.85,4.8 17.25,6.75 8.25,1.35 16.35,2.4 8.25,0.9 15,2.7 6.75,1.8 10.8,5.4 4.2,3.45 4.2,9.9 0,6.3 -3.6,10.65 -3.6,4.35 -9.75,6.45 -6,2.25 -13.2,2.25 z m 90.9001,-2.1 q -12.45,-2.25 -20.7,-10.8 -8.25,-8.55 -10.95,-21.3 -0.75,-3.6 -1.2,-7.35 -0.3,-3.9 -0.3,-7.8 0,-6.45 0.75,-12.9 0.9,-6.6 2.1,-12.6 h -17.7 q -2.4,0 -3.45,-1.35 -1.05,-1.5 -1.05,-3.15 0,-1.95 1.2,-3.15 1.35,-1.35 3.3,-1.35 h 19.95 q 0.6,-2.4 1.95,-6.75 1.35,-4.35 2.85,-8.7 1.5,-4.35 2.4,-6.75 1.2,-2.7 4.05,-2.7 2.25,0 3.45,1.35 1.35,1.35 1.35,3 0,0.9 -0.45,1.8 -0.9,2.55 -2.25,6.15 -1.2,3.6 -2.4,7.05 -1.05,3.3 -1.65,5.55 h 41.4 q 2.4,0 3.45,1.5 1.05,1.5 1.05,3 0,1.65 -1.2,3.15 -1.05,1.35 -3.3,1.35 h -43.65 q -1.35,6 -2.25,12.75 -0.75,6.75 -0.75,12.9 0,2.7 0.15,5.25 0.15,2.55 0.6,4.8 2.1,11.25 8.4,19.05 6.3,7.65 17.4,9.45 1.5,0.15 3.15,0.15 1.65,0.15 3.15,0.15 4.65,0 9.3,-0.6 4.65,-0.6 7.95,-1.95 0.6,-0.15 1.05,-0.15 0.45,-0.15 0.9,-0.15 4.05,0 4.05,4.95 0,2.4 -3.15,3.9 -8.7,3.15 -19.5,3.15 -5.1,0 -9.45,-0.9 z m 93.9001,1.35 q -1.2,0.15 -2.55,0.15 -1.2,0 -2.4,0 -13.35,0 -23.85,-5.7 -10.5,-5.55 -16.5,-15.45 -6,-9.9 -6,-22.65 0,-12 4.65,-22.05 4.8,-10.2 13.5,-16.95 8.7,-6.75 20.55,-8.55 1.65,-0.3 3.6,-0.45 1.95,-0.15 3.9,-0.15 8.1,0 16.8,2.25 8.85,2.1 14.85,6 0.75,-1.65 2.4,-1.95 1.65,-0.45 2.7,-0.15 1.65,0.15 2.55,1.5 0.9,1.35 0.9,3.15 -0.15,3.45 -0.3,6.75 0,3.3 0,6.6 0,16.8 2.4,29.85 2.55,13.05 9.45,22.8 0.9,1.35 0.9,2.7 0,1.8 -1.5,3 -1.35,1.2 -3,1.2 -2.25,0 -3.75,-1.95 -1.5,-2.1 -3,-4.65 -1.35,-2.55 -2.25,-4.5 -6.15,8.55 -15,13.2 -8.85,4.8 -19.05,6 z m -3,-8.7 q 10.2,0 18.75,-5.7 8.7,-5.7 14.1,-15.6 -2.25,-8.4 -3.3,-19.5 -1.05,-11.1 -0.9,-23.1 -3,-3.3 -7.95,-5.55 -4.95,-2.25 -10.8,-3.45 -5.85,-1.2 -11.55,-1.2 -3.75,0 -7.05,0.45 -3.3,0.45 -6.15,1.65 -11.4,4.2 -18.15,14.1 -6.6,9.75 -6.6,22.35 0,11.1 5.25,19.05 5.4,7.95 14.4,12.3 9,4.2 19.95,4.2 z m 148.6501,7.65 q -1.95,0 -3.45,-1.35 -1.35,-1.2 -1.35,-3.15 0,-0.6 0.3,-1.5 2.55,-7.95 4.05,-16.65 1.65,-8.85 1.65,-16.95 0,-16.05 -6.75,-25.5 -6.6,-9.6 -21,-10.65 -10.8,-0.45 -18.6,5.4 -7.8,5.85 -13.05,15.45 -4.65,8.85 -7.05,20.1 -2.25,11.25 -2.25,21.9 0,1.5 0,3 0,1.65 0.15,3.15 0,2.7 -1.65,3.75 -1.5,1.2 -3.15,1.2 -3.75,0 -4.2,-4.35 -1.05,-9.45 -1.95,-21 -0.75,-11.7 -1.35,-23.4 -0.45,-11.85 -0.45,-21.75 0,-2.85 0,-5.4 0,-2.55 0.15,-4.8 0,-2.55 1.5,-3.6 1.65,-1.05 3.15,-0.75 1.8,0 3,1.2 1.35,1.2 1.35,3.3 0.15,5.85 0.15,10.2 0,4.35 0,9 0.15,4.65 0.15,11.85 3.15,-10.2 9.3,-18 6.3,-7.8 14.7,-12.15 8.4,-4.5 18,-4.5 12.45,0 21.15,5.55 8.85,5.55 13.5,15.6 4.65,9.9 4.65,22.95 0,10.05 -1.8,19.5 -1.8,9.45 -4.8,19.2 -0.45,1.65 -1.65,2.4 -1.05,0.75 -2.4,0.75 z m 76.0497,-0.15 q -14.7,0 -25.35,-5.4 -10.65,-5.25 -16.35,-15.15 -5.7,-10.05 -5.7,-24 0,-12.9 5.85,-22.35 5.85,-9.45 15.9,-14.55 10.05,-5.25 22.65,-5.25 12.75,0 25.05,5.25 2.4,1.05 2.4,3.3 0,1.05 -0.75,2.1 -1.35,2.55 -4.35,2.55 -1.05,0 -2.25,-0.45 -9.6,-3.9 -19.35,-3.9 -10.65,0 -18.9,4.65 -8.25,4.5 -12.9,12.3 -4.5,7.8 -4.5,17.85 0,10.65 4.8,18.3 4.8,7.65 13.35,11.7 8.7,4.05 19.8,4.05 7.95,0 14.55,-1.95 6.6,-1.8 11.55,-4.2 -0.9,-6.45 -1.35,-14.4 -0.45,-8.1 -0.45,-16.8 0,-10.35 0.45,-21 0.6,-10.65 1.35,-20.7 0.9,-10.05 1.95,-18.45 0.3,-2.1 1.5,-3 1.35,-1.05 2.85,-1.05 1.8,0 3.3,1.35 1.5,1.35 1.2,3.75 -0.9,7.8 -1.65,17.4 -0.75,9.6 -1.2,20.1 -0.45,10.35 -0.45,20.55 0,12.3 0.75,23.1 0.75,10.8 2.55,18.15 0.15,0.45 0.15,1.35 0,1.35 -0.9,2.55 -0.9,1.35 -2.55,1.65 -4.5,0.45 -5.55,-3.45 l -0.3,-1.8 q -5.55,2.85 -13.05,4.35 -7.35,1.5 -14.1,1.5 z m 195.4504,-0.15 q -12.45,-2.25 -20.7,-10.8 -8.25,-8.55 -10.95,-21.3 -0.75,-3.6 -1.2,-7.35 -0.3,-3.9 -0.3,-7.8 0,-6.45 0.75,-12.9 0.9,-6.6 2.1,-12.6 h -17.7 q -2.4,0 -3.45,-1.35 -1.05,-1.5 -1.05,-3.15 0,-1.95 1.2,-3.15 1.35,-1.35 3.3,-1.35 h 19.95 q 0.6,-2.4 1.95,-6.75 1.35,-4.35 2.85,-8.7 1.5,-4.35 2.4,-6.75 1.2,-2.7 4.05,-2.7 2.25,0 3.45,1.35 1.35,1.35 1.35,3 0,0.9 -0.45,1.8 -0.9,2.55 -2.25,6.15 -1.2,3.6 -2.4,7.05 -1.05,3.3 -1.65,5.55 h 41.4 q 2.4,0 3.45,1.5 1.05,1.5 1.05,3 0,1.65 -1.2,3.15 -1.05,1.35 -3.3,1.35 h -43.65 q -1.35,6 -2.25,12.75 -0.75,6.75 -0.75,12.9 0,2.7 0.15,5.25 0.15,2.55 0.6,4.8 2.1,11.25 8.4,19.05 6.3,7.65 17.4,9.45 1.5,0.15 3.15,0.15 1.65,0.15 3.15,0.15 4.65,0 9.3,-0.6 4.65,-0.6 7.95,-1.95 0.6,-0.15 1.05,-0.15 0.45,-0.15 0.9,-0.15 4.05,0 4.05,4.95 0,2.4 -3.15,3.9 -8.7,3.15 -19.5,3.15 -5.1,0 -9.45,-0.9 z m 93.9001,1.35 q -1.2,0.15 -2.55,0.15 -1.2,0 -2.4,0 -13.35,0 -23.85,-5.7 -10.5,-5.55 -16.5,-15.45 -6,-9.9 -6,-22.65 0,-12 4.65,-22.05 4.8,-10.2 13.5,-16.95 8.7,-6.75 20.55,-8.55 1.65,-0.3 3.6,-0.45 1.95,-0.15 3.9,-0.15 8.1,0 16.8,2.25 8.85,2.1 14.85,6 0.75,-1.65 2.4,-1.95 1.65,-0.45 2.7,-0.15 1.65,0.15 2.55,1.5 0.9,1.35 0.9,3.15 -0.15,3.45 -0.3,6.75 0,3.3 0,6.6 0,16.8 2.4,29.85 2.55,13.05 9.45,22.8 0.9,1.35 0.9,2.7 0,1.8 -1.5,3 -1.35,1.2 -3,1.2 -2.25,0 -3.75,-1.95 -1.5,-2.1 -3,-4.65 -1.35,-2.55 -2.25,-4.5 -6.15,8.55 -15,13.2 -8.85,4.8 -19.05,6 z m -3,-8.7 q 10.2,0 18.75,-5.7 8.7,-5.7 14.1,-15.6 -2.25,-8.4 -3.3,-19.5 -1.05,-11.1 -0.9,-23.1 -3,-3.3 -7.95,-5.55 -4.95,-2.25 -10.8,-3.45 -5.85,-1.2 -11.55,-1.2 -3.75,0 -7.05,0.45 -3.3,0.45 -6.15,1.65 -11.4,4.2 -18.15,14.1 -6.6,9.75 -6.6,22.35 0,11.1 5.25,19.05 5.4,7.95 14.4,12.3 9,4.2 19.95,4.2 z m 66.7498,8.25 q -2.25,0 -3.3,-1.35 -0.9,-1.35 -0.9,-2.7 0,-3.75 3.9,-4.2 6.9,-0.3 14.55,-2.1 7.65,-1.65 14.25,-4.35 -7.95,-6 -12.75,-12.45 -4.8,-6.45 -6.9,-14.55 -2.1,-8.1 -2.1,-18.6 0,-8.85 2.1,-17.25 2.1,-8.55 6.15,-15.3 4.05,-6.75 10.05,-10.65 6.15,-4.05 13.95,-4.05 10.95,0 17.7,5.85 6.9,5.7 10.05,15.15 3.3,9.3 3.3,20.25 0,9.9 -2.55,19.95 -2.55,10.05 -7.5,18.45 -4.95,8.4 -12.3,13.2 14.1,5.55 29.55,6.45 3.9,0.45 3.9,4.35 0,1.8 -1.2,2.85 -1.2,1.2 -3,1.05 -9.3,-0.45 -19.5,-3 -10.2,-2.55 -18.9,-6.3 -9,4.2 -18.9,6.6 -9.9,2.4 -19.65,2.7 z m 37.35,-19.5 q 7.8,-3.9 12.9,-11.25 5.25,-7.35 7.8,-16.5 2.7,-9.15 2.7,-18.3 0,-9 -2.55,-16.35 -2.4,-7.35 -7.35,-11.7 -4.8,-4.5 -12.15,-4.2 -5.25,0 -9.45,3.6 -4.05,3.45 -7.05,9.3 -2.85,5.7 -4.5,12.75 -1.5,7.05 -1.5,14.1 0,12.6 5.55,22.95 5.55,10.2 15.6,15.6 z m 60.0001,19.5 q -2.25,0 -3.3,-1.35 -0.9,-1.35 -0.9,-2.7 0,-3.75 3.9,-4.2 6.9,-0.3 14.55,-2.1 7.65,-1.65 14.25,-4.35 -7.95,-6 -12.75,-12.45 -4.8,-6.45 -6.9,-14.55 -2.1,-8.1 -2.1,-18.6 0,-8.85 2.1,-17.25 2.1,-8.55 6.15,-15.3 4.05,-6.75 10.05,-10.65 6.15,-4.05 13.95,-4.05 10.95,0 17.7,5.85 6.9,5.7 10.05,15.15 3.3,9.3 3.3,20.25 0,9.9 -2.55,19.95 -2.55,10.05 -7.5,18.45 -4.95,8.4 -12.3,13.2 14.1,5.55 29.55,6.45 3.9,0.45 3.9,4.35 0,1.8 -1.2,2.85 -1.2,1.2 -3,1.05 -9.3,-0.45 -19.5,-3 -10.2,-2.55 -18.9,-6.3 -9,4.2 -18.9,6.6 -9.9,2.4 -19.65,2.7 z m 37.35,-19.5 q 7.8,-3.9 12.9,-11.25 5.25,-7.35 7.8,-16.5 2.7,-9.15 2.7,-18.3 0,-9 -2.55,-16.35 -2.4,-7.35 -7.35,-11.7 -4.8,-4.5 -12.15,-4.2 -5.25,0 -9.45,3.6 -4.05,3.45 -7.05,9.3 -2.85,5.7 -4.5,12.75 -1.5,7.05 -1.5,14.1 0,12.6 5.55,22.95 5.55,10.2 15.6,15.6 z"
         id="text10"
         style="font-size:150px;font-family:naMbprOZwWyC4i;fill:url(#stgra_4762)"
         transform="scale(0.31345434)"
         aria-label="empowering youth to stand tall" />
    </g>
  </g>
</svg>
